<svg id="Слой_1" xmlns="http://www.w3.org/2000/svg" viewBox="0 0 496 496"><style>.st0{fill:url(#SVGID_1_)}</style><linearGradient id="SVGID_1_" gradientUnits="userSpaceOnUse" x1="472.935" y1="522.293" x2="-23.065" y2="25.293"><stop offset="0" stop-color="#ffbd52"/><stop offset="1" stop-color="#d53b9f"/></linearGradient><path class="st0" d="M32 400h192V160H32v240zm16-224h160v208H48V176zm104 52.4V208h-16v16h-16v-16h-16v16H88v112h16v16h16v-16h16v16h16v-20.4c9.5-5.6 16-15.8 16-27.6 0-9.5-4.2-18.1-10.9-24 6.7-5.9 10.9-14.5 10.9-24 0-11.8-6.5-22-16-27.6zM136 320h-32v-32h32c8.8 0 16 7.2 16 16s-7.2 16-16 16zm0-48h-32v-32h32c8.8 0 16 7.2 16 16s-7.2 16-16 16zm-32 176h48v16h-48v-16zm56-336H96V96h64v16zm32 0h-16V96h16v16zm-112 0H64V96h16v16zm208 112h16v-16h16v16h16v-20.4c9.5-5.6 16-15.8 16-27.6 0-9.5-4.2-18.1-10.9-24 6.7-5.9 10.9-14.5 10.9-24 0-11.8-6.5-22-16-27.6V80h-16v16h-16V80h-16v16h-16v112h16v16zm0-112h32c8.8 0 16 7.2 16 16s-7.2 16-16 16h-32v-32zm0 48h32c8.8 0 16 7.2 16 16s-7.2 16-16 16h-32v-32zm154.9 68.8C456.2 206.2 464 180 464 152 464 68.2 395.8 0 312 0c-49.4 0-95.4 23.8-123.9 64H40C17.9 64 0 81.9 0 104v352c0 22.1 17.9 40 40 40h176c18.4 0 33.7-12.5 38.4-29.4 26 19.1 57.3 29.4 89.6 29.4 83.8 0 152-68.2 152-152 0-44.6-19.3-86.2-53.1-115.2zM312 16c75 0 136 61 136 136s-61 136-136 136c-21 0-41.4-4.8-60.4-14.3l-11.6-5.8V416H16V144h224v104l3.4 2.4c20.2 14.1 43.9 21.6 68.6 21.6 66.2 0 120-53.8 120-120S378.2 32 312 32c-31.6 0-61 12-83.5 34-3.9-1.3-8.1-2-12.5-2h-7.7C234 33.7 271.8 16 312 16zm40 368h-32v-32h32c8.8 0 16 7.2 16 16s-7.2 16-16 16zm0-48h-32v-32h32c8.8 0 16 7.2 16 16s-7.2 16-16 16zm-32 64v16h16v-16h16v16h16v-20.4c9.5-5.6 16-15.8 16-27.6 0-9.5-4.2-18.1-10.9-24 6.7-5.9 10.9-14.5 10.9-24 0-11.5-6.1-21.5-15.2-27.1 16.1-6.5 30.7-15.7 43.5-27C435 285.7 448 313.8 448 344c0 57.3-46.7 104-104 104-36.1 0-68.8-18.3-88-49V293.2c15.4 6.2 31.5 9.6 48 10.4V400h16zM242.9 74.4C262 57.3 286.2 48 312 48c57.3 0 104 46.7 104 104s-46.7 104-104 104c-20 0-39.2-5.7-56-16.4V104c0-11.7-5.1-22.3-13.1-29.6zM40 80h176c13.2 0 24 10.8 24 24v24H16v-24c0-13.2 10.8-24 24-24zm176 400H40c-13.2 0-24-10.8-24-24v-24h224v24c0 13.2-10.8 24-24 24zm128 0c-32.3 0-63.3-11.6-88-32.7v-21.9c22.5 24.5 53.9 38.5 88 38.5 66.2 0 120-53.8 120-120 0-34.5-14.7-66.5-40.3-89.3 3.6-3.9 7-8 10.2-12.3 29.3 26 46.1 62.5 46.1 101.7 0 75-61 136-136 136z"/></svg>