<svg xmlns="http://www.w3.org/2000/svg" id="Layer_1" viewBox="0 0 512.2 512.2"><style>.st0{fill:url(#SVGID_1_)}.st1{fill:url(#SVGID_2_)}.st2{fill:url(#SVGID_3_)}.st3{fill:url(#SVGID_4_)}.st4{fill:url(#SVGID_5_)}.st5{fill:url(#SVGID_6_)}</style><g transform="translate(1 1)"><linearGradient id="SVGID_1_" gradientUnits="userSpaceOnUse" x1="537.199" y1="484.926" x2="25.199" y2="-24.074"><stop offset="0" stop-color="#ffbd52"/><stop offset="1" stop-color="#d53b9f"/></linearGradient><path class="st0" d="M272.1 336.1h136.5c5.1 0 8.5-3.4 8.5-8.5v-76.8c0-5.1-3.4-8.5-8.5-8.5H272.1c-5.1 0-8.5 3.4-8.5 8.5v76.8c-.1 5.1 3.3 8.5 8.5 8.5zm8.5-76.8h119.5V319H280.6v-59.7z"/><linearGradient id="SVGID_2_" gradientUnits="userSpaceOnUse" x1="441.976" y1="580.71" x2="-70.023" y2="71.71"><stop offset="0" stop-color="#ffbd52"/><stop offset="1" stop-color="#d53b9f"/></linearGradient><path class="st1" d="M41.7 225.2H110c5.1 0 8.5-3.4 8.5-8.5s-3.4-8.5-8.5-8.5H41.7c-5.1 0-8.5 3.4-8.5 8.5s3.3 8.5 8.5 8.5z"/><linearGradient id="SVGID_3_" gradientUnits="userSpaceOnUse" x1="492.876" y1="529.511" x2="-19.124" y2="20.511"><stop offset="0" stop-color="#ffbd52"/><stop offset="1" stop-color="#d53b9f"/></linearGradient><path class="st2" d="M144.1 225.2h68.3c5.1 0 8.5-3.4 8.5-8.5s-3.4-8.5-8.5-8.5h-68.3c-5.1 0-8.5 3.4-8.5 8.5s3.3 8.5 8.5 8.5z"/><linearGradient id="SVGID_4_" gradientUnits="userSpaceOnUse" x1="435.514" y1="587.211" x2="-76.486" y2="78.211"><stop offset="0" stop-color="#ffbd52"/><stop offset="1" stop-color="#d53b9f"/></linearGradient><path class="st3" d="M41.7 259.3h110.9c5.1 0 8.5-3.4 8.5-8.5s-3.4-8.5-8.5-8.5H41.7c-5.1 0-8.5 3.4-8.5 8.5s3.3 8.5 8.5 8.5z"/><linearGradient id="SVGID_5_" gradientUnits="userSpaceOnUse" x1="486.413" y1="536.012" x2="-25.587" y2="27.012"><stop offset="0" stop-color="#ffbd52"/><stop offset="1" stop-color="#d53b9f"/></linearGradient><path class="st4" d="M212.3 242.3h-25.6c-5.1 0-8.5 3.4-8.5 8.5s3.4 8.5 8.5 8.5h25.6c5.1 0 8.5-3.4 8.5-8.5s-3.3-8.5-8.5-8.5z"/><linearGradient id="SVGID_6_" gradientUnits="userSpaceOnUse" x1="516.108" y1="506.142" x2="4.108" y2="-2.858"><stop offset="0" stop-color="#ffbd52"/><stop offset="1" stop-color="#d53b9f"/></linearGradient><path class="st5" d="M503.3 136.5c-6-7.7-13.7-11.9-23-12.8l-20.5-2.5V80.1c0-18.8-15.4-34.1-34.1-34.1H33.1C14.4 46-1 61.4-1 80.1v273.1c0 15.4 10.4 28.5 24.5 32.7-.4 17.3 12.6 32.2 30.2 33.8l394.2 44.4h3.4c17.1 0 32.4-12.8 34.1-29L511 161.2c.9-8.5-1.7-17.9-7.7-24.7zM16.1 105.7h426.7v51.2H16.1v-51.2zm17-42.6h392.5c9.4 0 17.1 7.7 17.1 17.1v8.5H16.1v-8.5c0-9.4 7.6-17.1 17-17.1zm-17 290.1V174h426.7v179.2c0 9.4-7.7 17.1-17.1 17.1H33.1c-9.4 0-17-7.7-17-17.1zm477.8-195.4l-25.6 273.9c-.9 9.4-9.4 16.2-18.8 15.4L56.2 402.7c-8.5-.9-14.5-7.7-15.4-15.4h384.9c18.8 0 34.1-15.4 34.1-34.1V137.3l19.6 1.7c4.3 0 8.5 2.6 11.1 6 2.6 3.4 4.3 8.5 3.4 12.8z"/></g></svg>