<svg id="Слой_1" xmlns="http://www.w3.org/2000/svg" viewBox="0 0 496 496"><style>.st0{fill:url(#SVGID_1_)}.st1{fill:url(#SVGID_2_)}.st2{fill:url(#SVGID_3_)}.st3{fill:url(#SVGID_4_)}.st4{fill:url(#SVGID_5_)}.st5{fill:url(#SVGID_6_)}</style><linearGradient id="SVGID_1_" gradientUnits="userSpaceOnUse" x1="432.955" y1="-36.881" x2="-55.045" y2="459.119" gradientTransform="matrix(.9955 0 0 -.9955 -.643 494.806)"><stop offset="0" stop-color="#ffbd52"/><stop offset="1" stop-color="#d53b9f"/></linearGradient><path class="st0" d="M470.1 171L247.7 0l-82.2 66.3V10.5H66.8v135.7l-41.1 33.2v267.3H1V496h493.7v-49.4H470V171zM83.3 92.8h32.9V76.3H83.3V59.9h16.5V43.4H83.3V26.9h65.8v24.7h-16.5v16.5h16.5v11.6l-65.8 53.2V92.8zM42.1 207.7v-20.5L248 21l205.6 158.2v28.6L247.9 49.5 42.1 207.7zm0 222.5H75v-16.5H42.1V228.5L247.9 70.2l205.7 158.3v185.2h-49.4v16.5h49.4v16.5H330.2v-32.9h-24.7V249.1H190.3v164.6h-24.7v32.9H42.1v-16.4zM289 413.7h-82.3V265.6H289v148.1zm24.7 16.5v16.5H182v-16.5h131.7zm164.6 32.9v16.5H17.5v-16.5h460.8z"/><linearGradient id="SVGID_2_" gradientUnits="userSpaceOnUse" x1="385.496" y1="-83.576" x2="-102.504" y2="412.424" gradientTransform="matrix(.9955 0 0 -.9955 -.643 494.806)"><stop offset="0" stop-color="#ffbd52"/><stop offset="1" stop-color="#d53b9f"/></linearGradient><path class="st1" d="M173.8 249.1H58.6v115.2h115.2V249.1zm-16.4 49.4h-32.9v-32.9h32.9v32.9zM108 265.6v32.9H75.1v-32.9H108zM75.1 315H108v32.9H75.1V315zm49.3 32.9V315h32.9v32.9h-32.9z"/><linearGradient id="SVGID_3_" gradientUnits="userSpaceOnUse" x1="519.912" y1="48.673" x2="31.912" y2="544.673" gradientTransform="matrix(.9955 0 0 -.9955 -.643 494.806)"><stop offset="0" stop-color="#ffbd52"/><stop offset="1" stop-color="#d53b9f"/></linearGradient><path class="st2" d="M437.1 249.1H321.9v115.2h115.2V249.1zm-16.4 49.4h-32.9v-32.9h32.9v32.9zm-49.4-32.9v32.9h-32.9v-32.9h32.9zM338.4 315h32.9v32.9h-32.9V315zm49.4 32.9V315h32.9v32.9h-32.9z"/><linearGradient id="SVGID_4_" gradientUnits="userSpaceOnUse" x1="427.772" y1="-41.981" x2="-60.228" y2="454.019" gradientTransform="matrix(.9955 0 0 -.9955 -.643 494.806)"><stop offset="0" stop-color="#ffbd52"/><stop offset="1" stop-color="#d53b9f"/></linearGradient><path class="st3" d="M223.2 331.4h16.5v16.5h-16.5v-16.5z"/><linearGradient id="SVGID_5_" gradientUnits="userSpaceOnUse" x1="319.236" y1="-148.767" x2="-168.764" y2="347.233" gradientTransform="matrix(.9955 0 0 -.9955 -.643 494.806)"><stop offset="0" stop-color="#ffbd52"/><stop offset="1" stop-color="#d53b9f"/></linearGradient><path class="st4" d="M91.5 413.7H108v16.5H91.5v-16.5z"/><linearGradient id="SVGID_6_" gradientUnits="userSpaceOnUse" x1="518.828" y1="47.606" x2="30.828" y2="543.606" gradientTransform="matrix(.9955 0 0 -.9955 -.643 494.806)"><stop offset="0" stop-color="#ffbd52"/><stop offset="1" stop-color="#d53b9f"/></linearGradient><path class="st5" d="M297.2 224.4v-98.7h-98.7v98.7h98.7zM256.1 208v-24.7h24.7V208h-24.7zm24.7-41.2h-24.7v-24.7h24.7v24.7zm-41.2-24.7v24.7H215v-24.7h24.6zM215 208v-24.7h24.7V208H215z"/></svg>