<svg id="Слой_1" xmlns="http://www.w3.org/2000/svg" viewBox="0 0 496 496"><style>.st0{fill:url(#SVGID_1_)}.st1{fill:url(#SVGID_2_)}.st2{fill:url(#SVGID_3_)}.st3{fill:url(#SVGID_4_)}.st4{fill:url(#SVGID_5_)}</style><linearGradient id="SVGID_1_" gradientUnits="userSpaceOnUse" x1="548.941" y1="72.168" x2="70.941" y2="558.168" gradientTransform="matrix(1 0 0 -1 0 497.28)"><stop offset="0" stop-color="#ffbd52"/><stop offset="1" stop-color="#d53b9f"/></linearGradient><path class="st0" d="M288 215c4.4 0 8-3.6 8-8v-40h168c4.4 0 8-3.6 8-8V15c0-4.4-3.6-8-8-8H208c-4.4 0-8 3.6-8 8v24h-56c-2.7 0-5.2 1.3-6.7 3.6L107.7 87H16c-4.4 0-8 3.6-8 8v112c0 4.4 3.6 8 8 8h272zM216 23h240v128H296V79c0-4.4-3.6-8-8-8h-40V55h16V39h-24c-4.4 0-8 3.6-8 8v24h-16V23zm-67.7 32H200v16h-48v16h128v16h-80v16h80v16h-80v16h80v16h-80v16h80v16H120V97.4L148.3 55zM24 103h80v96H24v-96z"/><linearGradient id="SVGID_2_" gradientUnits="userSpaceOnUse" x1="433.626" y1="-41.248" x2="-44.374" y2="444.752" gradientTransform="matrix(1 0 0 -1 0 497.28)"><stop offset="0" stop-color="#ffbd52"/><stop offset="1" stop-color="#d53b9f"/></linearGradient><path class="st1" d="M480 359h-91.7l-29.6-44.4c-1.5-2.2-4-3.6-6.7-3.6h-56v-32h8c4.4 0 8-3.6 8-8v-32c0-4.4-3.6-8-8-8H160c-4.4 0-8 3.6-8 8v32c0 4.4 3.6 8 8 8h8v160h-8c-4.4 0-8 3.6-8 8v32c0 4.4 3.6 8 8 8h320c4.4 0 8-3.6 8-8V367c0-4.4-3.6-8-8-8zM168 247h128v16H168v-16zm16 32h96v64h-16v-48h-16v48h-40c-4.4 0-8 3.6-8 8v88h-16V279zm-16 176h32v16h-32v-16zm48 0h80v-16h-80v-16h80v-16h-80v-16h80v-16h-80v-16h128v-16h-48v-16h51.7l28.3 42.4V471H216v-16zm256 16h-80v-96h80v96z"/><linearGradient id="SVGID_3_" gradientUnits="userSpaceOnUse" x1="673.282" y1="194.463" x2="195.282" y2="680.463" gradientTransform="matrix(1 0 0 -1 0 497.28)"><stop offset="0" stop-color="#ffbd52"/><stop offset="1" stop-color="#d53b9f"/></linearGradient><path class="st2" d="M424 71h16V47c0-4.4-3.6-8-8-8h-24v16h16v16z"/><linearGradient id="SVGID_4_" gradientUnits="userSpaceOnUse" x1="638.468" y1="160.222" x2="160.468" y2="646.222" gradientTransform="matrix(1 0 0 -1 0 497.28)"><stop offset="0" stop-color="#ffbd52"/><stop offset="1" stop-color="#d53b9f"/></linearGradient><path class="st3" d="M440 127v-24h-16v16h-16v16h24c4.4 0 8-3.6 8-8z"/><linearGradient id="SVGID_5_" gradientUnits="userSpaceOnUse" x1="609.736" y1="131.963" x2="131.736" y2="617.962" gradientTransform="matrix(1 0 0 -1 0 497.28)"><stop offset="0" stop-color="#ffbd52"/><stop offset="1" stop-color="#d53b9f"/></linearGradient><path class="st4" d="M328 135h16v-8h8c4.4 0 8-3.6 8-8V87c0-4.4-3.6-8-8-8h-24V63h32V47h-16v-8h-16v8h-8c-4.4 0-8 3.6-8 8v32c0 4.4 3.6 8 8 8h24v16h-32v16h16v8z"/></svg>