<svg id="Слой_1" xmlns="http://www.w3.org/2000/svg" viewBox="0 0 496 496"><style>.st0{fill:url(#SVGID_1_)}.st1{fill:url(#SVGID_2_)}</style><linearGradient id="SVGID_1_" gradientUnits="userSpaceOnUse" x1="331.892" y1="651.717" x2="-152.108" y2="165.717"><stop offset="0" stop-color="#ffbd52"/><stop offset="1" stop-color="#d53b9f"/></linearGradient><path class="st0" d="M254.1 435.3h-3.2c-3.2-17.7-18.7-31.1-37.3-31.1H61.1c-16.3 0-29.6 13.3-29.6 29.6v1.5H29c-13.9 0-25.2 11.3-25.2 25.2 0 13.9 11.3 25.2 25.2 25.2h225.1c13.9 0 25.2-11.3 25.2-25.2 0-13.8-11.3-25.2-25.2-25.2zm0 36.3H29c-6.1 0-11-4.9-11-11s4.9-11 11-11h36.3c3.9 0 7.1-3.2 7.1-7.1 0-3.9-3.2-7.1-7.1-7.1H45.9v-1.5c0-8.4 6.9-15.3 15.3-15.3h152.4c10.7 0 19.7 7.1 22.6 16.8H98.5c-3.9 0-7.1 3.2-7.1 7.1 0 3.9 3.2 7.1 7.1 7.1h155.6c6.1 0 11 4.9 11 11 0 6-5 11-11 11z"/><linearGradient id="SVGID_2_" gradientUnits="userSpaceOnUse" x1="494.055" y1="490.221" x2="10.055" y2="4.221"><stop offset="0" stop-color="#ffbd52"/><stop offset="1" stop-color="#d53b9f"/></linearGradient><path class="st1" d="M480 425.5l-28.9-27.3c-2.9-2.7-7.4-2.6-10.1.3-2.7 2.9-2.6 7.4.3 10.1l28.9 27.3c4.1 3.9 6.4 9.1 6.5 14.7.1 5.6-2.1 10.9-6.1 14.9-4 4-9.3 6.1-14.9 6.1-5.6-.1-10.9-2.4-14.7-6.5L258.5 271.7l18.4-18.4 140.2 132.4c1.4 1.3 3.1 1.9 4.9 1.9 1.9 0 3.8-.7 5.2-2.2 2.7-2.9 2.6-7.4-.3-10.1L286.1 242.4c4.6-9 3.2-20.4-4.4-28-7.9-7.9-20-9.1-29.2-3.7l-11.8-11.1 11.5-11.5c.4-.4.7-.7.9-1.2l18.3-28 1.8 1.8c4.1 4.1 9.4 6.1 14.8 6.1s10.7-2 14.8-6.1l13.8-13.8c8.1-8.1 8.1-21.4 0-29.5l-96-96c-3.9-3.9-9.2-6.1-14.8-6.1-5.6 0-10.8 2.2-14.8 6.1l-13.8 13.8c-3.9 3.9-6.1 9.2-6.1 14.8 0 5.6 2.2 10.8 6.1 14.8l1.8 1.8-28 18.3c-.4.3-.8.6-1.1.9l-59 59c-.4.4-.7.7-.9 1.2l-18.3 28-1.8-1.8c-3.9-3.9-9.2-6.1-14.8-6.1-5.6 0-10.8 2.2-14.8 6.1L26.5 186c-8.1 8.1-8.1 21.4 0 29.5l96 96c3.9 3.9 9.2 6.1 14.8 6.1 5.6 0 10.8-2.2 14.8-6.1l13.8-13.8c3.9-3.9 6.1-9.2 6.1-14.8 0-5.6-2.2-10.8-6.1-14.8l-1.8-1.8 28-18.3c.4-.3.8-.6 1.1-.9l11.5-11.5 11.1 11.8c-5.4 9.2-4.2 21.3 3.7 29.2 4.7 4.7 10.9 7 17 7 3.8 0 7.5-.9 11-2.6l183.1 193.9c6.5 6.9 15.4 10.8 24.9 11h.5c9.3 0 18.1-3.6 24.7-10.2 6.7-6.7 10.4-15.7 10.2-25.2 0-9.6-3.9-18.5-10.9-25zM187.4 45.3l13.8-13.8c1.2-1.2 2.9-1.9 4.7-1.9 1.8 0 3.4.7 4.7 1.9l96 96c1.2 1.2 1.9 2.9 1.9 4.7 0 1.8-.7 3.4-1.9 4.7l-13.8 13.8c-2.6 2.6-6.8 2.6-9.3 0l-8-8-80-80-8-8c-1.2-1.2-1.9-2.9-1.9-4.7-.2-1.8.5-3.5 1.8-4.7zm1.9 31.5l71.9 71.9-15.2 23.1L166.2 92l23.1-15.2zm-33.5 210.8L142 301.3c-1.2 1.2-2.9 1.9-4.7 1.9-1.8 0-3.4-.7-4.7-1.9l-96-96c-2.6-2.6-2.6-6.8 0-9.3l13.8-13.8c1.2-1.2 2.9-1.9 4.7-1.9 1.8 0 3.4.7 4.7 1.9l8 8 88 88c2.6 2.6 2.6 6.8 0 9.4zm-2-31.5l-71.9-71.9L97.1 161l79.9 79.8-23.2 15.3zm34.4-24.1L106 149.8l49-49 82.2 82.2-49 49zm26.6-6.5l15.8-15.8 11.2 10.6-16.4 16.4-10.6-11.2zm28.8 41s-.1 0 0 0c-.1 0-.1 0 0 0-3.9 3.9-10.1 3.8-13.9 0-3.8-3.8-3.8-10 0-13.9l28.1-28.1c1.9-1.9 4.4-2.9 6.9-2.9s5 1 6.9 2.9c3.8 3.8 3.8 10 0 13.8l-.1.1-27.9 28.1z"/></svg>