<svg id="Слой_1" xmlns="http://www.w3.org/2000/svg" viewBox="0 0 496 496"><style>.st0{fill:url(#SVGID_1_)}.st1{fill:url(#SVGID_2_)}.st2{fill:url(#SVGID_3_)}</style><linearGradient id="SVGID_1_" gradientUnits="userSpaceOnUse" x1="401.411" y1="469.364" x2="106.909" y2="46.41"><stop offset="0" stop-color="#ffbd52"/><stop offset="1" stop-color="#d53b9f"/></linearGradient><path class="st0" d="M248 12.5C117.6 12.5 11.5 118.6 11.5 249S117.6 485.6 248 485.6 484.5 379.5 484.5 249 378.4 12.5 248 12.5zm0 450.2c-117.8 0-213.6-95.8-213.6-213.6S130.2 35.4 248 35.4 461.6 131.3 461.6 249 365.8 462.7 248 462.7z"/><linearGradient id="SVGID_2_" gradientUnits="userSpaceOnUse" x1="404.309" y1="473.566" x2="104.207" y2="42.569"><stop offset="0" stop-color="#ffbd52"/><stop offset="1" stop-color="#d53b9f"/></linearGradient><path class="st1" d="M257.8 413.7c-3.3 0-6.2-2.6-6.4-6-.2-3.5 2.5-6.6 6-6.8 8.3-.5 16.5-1.7 24.5-3.5 3.4-.8 6.9 1.4 7.6 4.8.8 3.4-1.4 6.9-4.8 7.6-8.7 2-17.6 3.3-26.6 3.8 0 .1-.1.1-.3.1zm-44.9-3.6c-.5 0-.9 0-1.4-.2-8.7-2-17.4-4.7-25.7-8.1-3.3-1.3-4.8-5.1-3.5-8.3 1.3-3.3 5.1-4.8 8.3-3.5 7.6 3.1 15.6 5.6 23.7 7.4 3.4.8 5.6 4.2 4.8 7.6-.6 3-3.3 5.1-6.2 5.1zm112.6-16.3c-2.2 0-4.4-1.2-5.6-3.3-1.7-3.1-.6-7 2.4-8.7 7.2-4 14.1-8.7 20.6-13.9 2.8-2.2 6.8-1.8 9 1s1.8 6.8-1 9c-7 5.6-14.5 10.6-22.3 15-1 .6-2 .9-3.1.9zm-176.2-14.3c-1.4 0-2.8-.5-4-1.4-7-5.6-13.6-11.7-19.6-18.4-2.4-2.6-2.2-6.7.4-9 2.6-2.4 6.7-2.2 9 .4 5.6 6.1 11.6 11.8 18.1 17 2.8 2.2 3.2 6.2 1 9-1.1 1.6-3 2.4-4.9 2.4zm228.5-33c-1.3 0-2.5-.4-3.7-1.2-2.9-2-3.6-6-1.6-8.9 4.8-6.8 9-14 12.6-21.4 1.5-3.2 5.4-4.5 8.5-3 3.2 1.5 4.5 5.4 3 8.5-3.9 8-8.5 15.8-13.6 23.2-1.2 1.8-3.2 2.8-5.2 2.8zm-272.6-22c-2.4 0-4.6-1.3-5.7-3.6-3.9-8.1-7.2-16.5-9.7-25.1-1-3.4.9-6.9 4.3-7.9s6.9.9 7.9 4.3c2.3 7.9 5.3 15.7 8.9 23.1 1.5 3.2.2 7-3 8.5-.8.5-1.7.7-2.7.7zm299.3-43.3c-.3 0-.7 0-1-.1-3.5-.6-5.8-3.8-5.3-7.3 1.3-8.1 2-16.4 2-24.7v-.6c0-3.5 2.9-6.4 6.4-6.4 3.5 0 6.4 2.9 6.4 6.4v.5c0 9.1-.7 18.1-2.2 26.9-.6 3-3.3 5.3-6.3 5.3zm-315-25.6c-3.5 0-6.4-2.7-6.4-6.2v-.5c0-8.7.7-17.6 2.1-26.3.6-3.5 3.8-5.8 7.3-5.3 3.5.6 5.8 3.8 5.3 7.3-1.3 8-1.9 16.2-1.9 24.4 0 3.6-2.9 6.6-6.4 6.6zM400 210.2c-2.8 0-5.3-1.8-6.1-4.6-2.3-7.9-5.4-15.7-9-23.1-1.5-3.2-.2-7 2.9-8.5 3.2-1.6 7-.2 8.5 2.9 3.9 8.1 7.2 16.5 9.7 25 1 3.4-.9 6.9-4.3 7.9-.5.3-1.1.4-1.7.4zm-295-23.3c-.9 0-1.9-.2-2.8-.6-3.2-1.5-4.5-5.3-3-8.5 3.9-8.1 8.4-15.9 13.6-23.2 2-2.9 6-3.6 8.9-1.6 2.9 2 3.6 6 1.6 8.9-4.7 6.8-8.9 14-12.5 21.4-1.2 2.3-3.4 3.6-5.8 3.6zm260.3-38.1c-1.7 0-3.5-.7-4.7-2.1-5.6-6.1-11.6-11.8-18.1-16.9-2.8-2.2-3.2-6.2-1-9s6.2-3.2 9-1c7 5.6 13.6 11.7 19.6 18.3 2.4 2.6 2.2 6.6-.4 9-1.3 1.1-2.9 1.7-4.4 1.7zm-216.4-17.1c-1.9 0-3.7-.8-5-2.4-2.2-2.7-1.8-6.8 1-9 7-5.6 14.5-10.7 22.3-15.1 3.1-1.7 7-.6 8.7 2.4 1.7 3.1.6 7-2.4 8.7-7.2 4-14.1 8.7-20.5 13.9-1.3 1.1-2.7 1.5-4.1 1.5zm158.6-23.3c-.8 0-1.6-.2-2.4-.5-7.7-3.1-15.6-5.6-23.7-7.4-3.4-.8-5.6-4.2-4.8-7.6.8-3.4 4.2-5.6 7.6-4.8 8.7 2 17.4 4.7 25.7 8 3.3 1.3 4.8 5 3.5 8.3-1 2.5-3.4 4-5.9 4zm-95.2-7.5c-2.9 0-5.5-2-6.2-5-.8-3.4 1.4-6.9 4.8-7.7 8.7-2 17.6-3.3 26.6-3.9 3.5-.2 6.6 2.4 6.8 6 .2 3.5-2.4 6.6-6 6.8-8.3.5-16.5 1.7-24.5 3.6-.6.2-1.1.2-1.5.2z"/><linearGradient id="SVGID_3_" gradientUnits="userSpaceOnUse" x1="399.564" y1="476.871" x2="99.462" y2="45.873"><stop offset="0" stop-color="#ffbd52"/><stop offset="1" stop-color="#d53b9f"/></linearGradient><path class="st2" d="M175.5 155.4h92.9c22.8 0 38.8 5.9 49.4 16.9 7.2 7.5 11.6 17.4 11.6 30.8 0 21.7-11.9 34.6-27.9 41.8 22 7.5 36 20.4 36 46.4 0 32.2-25.3 51.7-68.5 51.7h-93.4V155.4zm80.4 74.8c15.3 0 23.8-5.4 23.8-16.9 0-10.2-7.8-16.1-22.8-16.1h-32.6v33h31.6zm7.3 71c15.3 0 24.1-6.2 24.1-17.7 0-10.2-7.8-16.9-24.6-16.9h-38.3v34.6h38.8z"/></svg>