<svg xmlns="http://www.w3.org/2000/svg" xmlns:xlink="http://www.w3.org/1999/xlink" width="151" height="151" viewBox="0 0 151 151"><defs><style>.cls-1{fill:url(#Безымянный_градиент_4)}.cls-2{fill:url(#Безымянный_градиент_4-2)}.cls-3{fill:url(#Безымянный_градиент_4-3)}</style><linearGradient id="Безымянный_градиент_4" x1="124.47" y1="145.82" x2="30.47" y2="10.82" gradientUnits="userSpaceOnUse"><stop offset="0" stop-color="#ffbd52"/><stop offset="1" stop-color="#d53b9f"/></linearGradient><linearGradient id="Безымянный_градиент_4-2" x1="124.46" y1="145.83" x2="30.46" y2="10.83" xlink:href="#Безымянный_градиент_4"/><linearGradient id="Безымянный_градиент_4-3" x1="122.97" y1="146.86" x2="28.97" y2="11.86" xlink:href="#Безымянный_градиент_4"/></defs><title>Ресурс 1</title><g id="Слой_2" data-name="Слой 2"><g id="DESIGNED_BY_FREEPIK" data-name="DESIGNED BY IDIOT"><path class="cls-1" d="M75.5 151A75.5 75.5 0 1 1 151 75.5 75.59 75.59 0 0 1 75.5 151zm0-141A65.5 65.5 0 1 0 141 75.5 65.57 65.57 0 0 0 75.5 10z"/><path class="cls-2" d="M78.58 127.06a2 2 0 0 1-.12-4 47.81 47.81 0 0 0 7.69-1.1 2 2 0 1 1 .89 3.9 51.82 51.82 0 0 1-8.33 1.2zm-14.08-1.13a2 2 0 0 1-.44 0 51.48 51.48 0 0 1-8-2.53 2 2 0 0 1 1.51-3.71 47.33 47.33 0 0 0 7.38 2.31 2 2 0 0 1-.44 4zm35.27-5.11a2 2 0 0 1-1-3.74 47.81 47.81 0 0 0 6.44-4.34 2 2 0 1 1 2.5 3.13 51.91 51.91 0 0 1-7 4.7 2 2 0 0 1-.93.26zm-55.18-4.46a2 2 0 0 1-1.25-.44 52.29 52.29 0 0 1-6.14-5.76 2 2 0 0 1 3-2.69 48.19 48.19 0 0 0 5.67 5.32 2 2 0 0 1-1.25 3.56zM116.16 106a2 2 0 0 1-1.63-3.15 47.91 47.91 0 0 0 3.93-6.7 2 2 0 1 1 3.6 1.74 51.94 51.94 0 0 1-4.26 7.26 2 2 0 0 1-1.64.85zm-85.37-6.88A2 2 0 0 1 29 98a51.4 51.4 0 0 1-3-7.85A2 2 0 0 1 29.78 89a47.43 47.43 0 0 0 2.8 7.24 2 2 0 0 1-1.8 2.87zm93.72-13.56h-.32a2 2 0 0 1-1.65-2.29 48.3 48.3 0 0 0 .62-7.74v-.19a2 2 0 0 1 4 0v.16a52.32 52.32 0 0 1-.68 8.41 2 2 0 0 1-1.97 1.65zm-98.67-8a2 2 0 0 1-2-2v-.16a52 52 0 0 1 .66-8.23 2 2 0 1 1 3.95.64 48.21 48.21 0 0 0-.61 7.65 2 2 0 0 1-2 2.09zm97.26-14.23a2 2 0 0 1-1.92-1.43 47.43 47.43 0 0 0-2.81-7.23 2 2 0 0 1 3.6-1.75 51.39 51.39 0 0 1 3.03 7.84 2 2 0 0 1-1.92 2.57zm-92.4-7.28a2 2 0 0 1-1.8-2.87 51.82 51.82 0 0 1 4.25-7.27 2 2 0 0 1 3.28 2.29 47.87 47.87 0 0 0-3.92 6.71 2 2 0 0 1-1.81 1.14zm81.54-12a2 2 0 0 1-1.48-.65 48.21 48.21 0 0 0-5.67-5.3 2 2 0 1 1 2.48-3.1 52.09 52.09 0 0 1 6.15 5.75 2 2 0 0 1-1.48 3.35zm-67.8-5.35a2 2 0 0 1-1.25-3.56 51.66 51.66 0 0 1 7-4.72 2 2 0 1 1 2 3.48 47.77 47.77 0 0 0-6.43 4.35 2 2 0 0 1-1.32.5zm49.68-7.29a2 2 0 0 1-.75-.15A47.61 47.61 0 0 0 86 29a2 2 0 1 1 .88-3.9 51.5 51.5 0 0 1 8 2.51 2 2 0 0 1-.75 3.85zm-29.81-2.3a2 2 0 0 1-.45-3.95 52 52 0 0 1 8.33-1.21 2 2 0 0 1 .25 4 47.87 47.87 0 0 0-7.68 1.12 2 2 0 0 1-.45.04z"/><path class="cls-3" d="M52.78 46.17h29.09C89 46.17 94 48 97.34 51.46a13.26 13.26 0 0 1 3.66 9.65c0 6.8-3.73 10.83-8.75 13.09 6.89 2.35 11.26 6.38 11.26 14.52 0 10.07-7.94 16.2-21.47 16.2H52.78zM78 69.59c4.78 0 7.45-1.68 7.45-5.29 0-3.19-2.43-5-7.13-5H68.09v10.29zm2.27 22.24c4.78 0 7.53-1.93 7.53-5.54 0-3.19-2.43-5.29-7.7-5.29h-12v10.84z"/></g></g></svg>