<svg xmlns="http://www.w3.org/2000/svg" width="11" height="10" viewBox="0 0 11 10">
    <g fill="#FFF" fill-rule="evenodd">
        <path d="M9.281.667H7.906V.333c0-.2-.137-.333-.344-.333-.206 0-.343.133-.343.333v.334H3.78V.333c0-.2-.137-.333-.343-.333-.207 0-.344.133-.344.333v.334H1.719C.756.667 0 1.4 0 2.333v6C0 9.267.756 10 1.719 10H9.28C10.244 10 11 9.267 11 8.333v-6C11 1.4 10.244.667 9.281.667zM.688 2.333c0-.533.48-1 1.03-1h1.376v.334c0 .2.137.333.344.333.206 0 .343-.133.343-.333v-.334H7.22v.334c0 .2.137.333.344.333.206 0 .343-.133.343-.333v-.334h1.375c.55 0 1.032.467 1.032 1v1H.688v-1zm9.624 6c0 .534-.48 1-1.03 1H1.718c-.55 0-1.031-.466-1.031-1V4h9.624v4.333z"/>
        <path d="M2.5 8c.15 0 .25-.05.35-.15.1-.1.15-.25.15-.35 0-.1-.05-.25-.15-.35-.2-.2-.5-.2-.7 0-.1.1-.15.2-.15.35 0 .1.05.25.15.35.1.1.2.15.35.15zM2.5 6c.15 0 .25-.05.35-.15.1-.1.15-.25.15-.35 0-.1-.05-.25-.15-.35-.2-.2-.5-.2-.7 0-.1.1-.15.2-.15.35 0 .15.05.25.15.35.1.1.2.15.35.15zM4.5 8c.15 0 .25-.05.35-.15.1-.1.15-.25.15-.35 0-.1-.05-.25-.15-.35-.2-.2-.5-.2-.7 0-.1.1-.15.25-.15.35 0 .1.05.25.15.35.1.1.2.15.35.15zM4.5 6c.15 0 .25-.05.35-.15.1-.1.15-.25.15-.35 0-.1-.05-.25-.15-.35-.2-.2-.5-.2-.7 0-.1.1-.15.25-.15.35 0 .1.05.25.15.35.1.1.2.15.35.15zM6.5 8c.15 0 .25-.05.35-.15.1-.1.15-.2.15-.35 0-.15-.05-.25-.15-.35-.2-.2-.5-.2-.7 0-.1.1-.15.25-.15.35 0 .1.05.25.15.35.1.1.2.15.35.15zM6.5 6c.15 0 .25-.05.35-.15.1-.1.15-.2.15-.35 0-.1-.05-.25-.15-.35-.2-.2-.5-.2-.7 0-.1.1-.15.25-.15.35 0 .1.05.25.15.35.1.1.2.15.35.15zM8.5 8c.15 0 .25-.05.35-.15.1-.1.15-.25.15-.35 0-.1-.05-.25-.15-.35-.2-.2-.5-.2-.7 0-.1.1-.15.2-.15.35 0 .1.05.25.15.35.1.1.2.15.35.15zM8.5 6c.15 0 .25-.05.35-.15.1-.1.15-.2.15-.35 0-.1-.05-.25-.15-.35-.2-.2-.5-.2-.7 0-.1.1-.15.25-.15.35 0 .1.05.25.15.35.1.1.2.15.35.15z"/>
    </g>
</svg>
