<svg xmlns="http://www.w3.org/2000/svg" width="57" height="50" viewBox="0 0 57 50">
    <path fill="#0001FE" fill-rule="evenodd" d="M49.615 24.923V14.748a5.198 5.198 0 0 1 4.167 5.088 5.198 5.198 0 0 1-4.167 5.087zm-2.73 11.857c0 .02 0 .035-.03.053-.035.02-.056.009-.073 0a67.68 67.68 0 0 0-27.062-8.385V11.225A67.702 67.702 0 0 0 46.782 2.84c.017-.01.038-.021.073 0 .03.017.03.032.03.052V36.78zm-23.7 10.473c-.012.016-.02.016-.032.016h-6.368a.039.039 0 0 1-.036-.023L10.874 31.03h6.447l5.868 16.187c.004.011.007.02-.005.036zM2.73 23.727v-7.778a.81.81 0 0 1 .81-.81h1.753v9.398H3.54a.81.81 0 0 1-.81-.81zM8.023 12.91c0-.846.689-1.534 1.535-1.534h7.432V28.3s-7.497-.003-7.53-.005a1.536 1.536 0 0 1-1.438-1.53V12.91h.001zm48.49 6.925c0-4.02-3.013-7.348-6.898-7.851V2.892A2.765 2.765 0 0 0 48.237.484a2.778 2.778 0 0 0-2.788-.027C37.06 5.149 27.93 7.89 18.32 8.603c-.074.005-8.761.043-8.761.043a4.27 4.27 0 0 0-4.235 3.763H3.54A3.544 3.544 0 0 0 0 15.949v7.778a3.544 3.544 0 0 0 3.54 3.54h1.783a4.275 4.275 0 0 0 2.515 3.4l6.345 17.51A2.778 2.778 0 0 0 16.786 50h6.367a2.771 2.771 0 0 0 2.603-3.715l-5.452-15.037a64.947 64.947 0 0 1 25.146 7.967c.43.241.9.361 1.37.361.488 0 .975-.13 1.416-.388a2.765 2.765 0 0 0 1.379-2.408v-9.093c3.885-.503 6.897-3.83 6.897-7.851z"/>
</svg>
