<svg xmlns="http://www.w3.org/2000/svg" width="50" height="51" viewBox="0 0 50 51">
    <g fill="#0001FE" fill-rule="evenodd">
        <path d="M1.667 21.667c0-1.379 1.121-2.5 2.5-2.5h4.166c1.379 0 2.5 1.121 2.5 2.5v6.666c0 .46.374.834.834.834H20v2.5H8.333v-7.5H6.667V32.5c0 .46.373.833.833.833H15c1.378 0 2.5 1.122 2.5 2.5v13.334h-3.333V37.5a.834.834 0 0 0-.834-.833H4.167a2.503 2.503 0 0 1-2.5-2.5v-12.5zm1.666-8.334A4.171 4.171 0 0 1 7.5 9.167a4.171 4.171 0 0 1 4.167 4.166A4.171 4.171 0 0 1 7.5 17.5a4.171 4.171 0 0 1-4.167-4.167zm14.167 10a4.171 4.171 0 0 1 4.167-4.166h.255l2.298 6.125a.833.833 0 0 0 1.56 0l2.297-6.125h.256a4.171 4.171 0 0 1 4.167 4.166V27.5h-3.333a.834.834 0 0 0-.834.833v3.334h-6.666v-3.334a.834.834 0 0 0-.834-.833H17.5v-4.167zm3.333-10A4.171 4.171 0 0 1 25 9.167a4.171 4.171 0 0 1 4.167 4.166A4.171 4.171 0 0 1 25 17.5a4.171 4.171 0 0 1-4.167-4.167zm5.465 5.834L25 22.627l-1.297-3.46h2.595zm12.035 10c.46 0 .834-.374.834-.834v-6.666c0-1.379 1.121-2.5 2.5-2.5h4.166c1.379 0 2.5 1.121 2.5 2.5v12.5c0 1.378-1.121 2.5-2.5 2.5h-9.166a.834.834 0 0 0-.834.833v11.667H32.5V35.833c0-1.378 1.122-2.5 2.5-2.5h7.5c.46 0 .833-.373.833-.833v-8.333h-1.666v7.5H30v-2.5h8.333zm0-15.834A4.171 4.171 0 0 1 42.5 9.167a4.171 4.171 0 0 1 4.167 4.166A4.171 4.171 0 0 1 42.5 17.5a4.171 4.171 0 0 1-4.167-4.167zM30.927 35H19.073a4.161 4.161 0 0 0-.741-1.667h13.336A4.161 4.161 0 0 0 30.927 35zM3.333 38.25v12.583H5v-12.5h7.5V50c0 .46.373.833.833.833h5c.46 0 .834-.373.834-.833V36.667h5v12.5h-3.334v1.666h8.334v-1.666h-3.334v-12.5h5V50c0 .46.374.833.834.833h5c.46 0 .833-.373.833-.833V38.333H45v12.5h1.667V38.25A4.174 4.174 0 0 0 50 34.167v-12.5c0-2.07-1.52-3.778-3.5-4.1a5.815 5.815 0 0 0 1.833-4.234A5.84 5.84 0 0 0 42.5 7.5a5.84 5.84 0 0 0-5.833 5.833 5.829 5.829 0 0 0 2.66 4.889 4.165 4.165 0 0 0-1.827 3.445V27.5h-3.333v-4.167c0-2.981-2.25-5.445-5.142-5.788a5.811 5.811 0 0 0 1.808-4.212A5.84 5.84 0 0 0 25 7.5a5.84 5.84 0 0 0-5.833 5.833c0 1.656.696 3.15 1.808 4.212-2.892.343-5.142 2.807-5.142 5.788V27.5H12.5v-5.833c0-1.431-.726-2.695-1.828-3.445a5.829 5.829 0 0 0 2.661-4.889A5.84 5.84 0 0 0 7.5 7.5a5.84 5.84 0 0 0-5.833 5.833c0 1.668.707 3.17 1.832 4.234C1.52 17.89 0 19.598 0 21.667v12.5a4.174 4.174 0 0 0 3.333 4.082z"/>
        <path d="M24.167 29.167h1.666V27.5h-1.666zM10 4.167v-2.5h10v2.5h-3.333a.833.833 0 0 0-.5.166l-2 1.5V5a.834.834 0 0 0-.834-.833H10zm2.96 4.079a.84.84 0 0 0 .873-.08l3.111-2.333h3.89c.46 0 .833-.373.833-.833V.833A.834.834 0 0 0 20.833 0H9.167a.834.834 0 0 0-.834.833V5c0 .46.374.833.834.833H12.5V7.5c0 .316.178.604.46.746zM29.167 4.167h1.666V2.5h-1.666zM32.5 4.167h1.667V2.5H32.5zM35.833 4.167H37.5V2.5h-1.667z"/>
    </g>
</svg>
