<svg xmlns="http://www.w3.org/2000/svg" width="46" height="57" viewBox="0 0 46 57">
    <path fill="#1B1BFE" fill-rule="evenodd" d="M3.025 49.785L3 49.92V54h41v-3.444l-.044-.514c-.259-3.065-1.6-5.911-3.742-8.316-2.038-2.305-4.819-4.196-8.063-5.45a13.26 13.26 0 0 1-3.6 2.551 11.804 11.804 0 0 1-5.042 1.15c-1.859 0-3.619-.434-5.22-1.23A13.507 13.507 0 0 1 14.585 36c-3.264 1.175-6.038 3.004-8.065 5.293-2.08 2.343-3.36 5.212-3.501 8.315v.177h.006zM23.51 0c3.794 0 7.21 1.908 9.651 4.974C35.521 7.938 37 12.012 37 16.5c0 4.488-1.479 8.562-3.839 11.526C30.721 31.111 27.304 33 23.51 33c-3.796 0-7.224-1.89-9.671-4.974C11.477 25.062 10 20.988 10 16.5c0-4.488 1.477-8.562 3.839-11.526C16.286 1.908 19.714 0 23.509 0zm7.306 6.977C28.923 4.532 26.338 3 23.509 3c-2.848 0-5.432 1.532-7.325 3.977C14.212 9.517 13 13.072 13 17c0 3.933 1.212 7.489 3.184 10.03C18.077 29.49 20.661 31 23.51 31c2.829 0 5.414-1.509 7.307-3.97C32.788 24.489 34 20.933 34 17c0-3.934-1.212-7.482-3.184-10.023zM.096 48.744c.378-3.396 1.815-6.492 4.086-9.076 2.49-2.858 5.98-5.098 10.029-6.388l.886-.28.589.732c.97 1.155 2.111 2.088 3.392 2.742 1.209.592 2.531.935 3.928.935a8.742 8.742 0 0 0 3.787-.874c1.226-.597 2.35-1.471 3.321-2.583l.608-.696.892.299c4.006 1.412 7.454 3.694 9.942 6.554 2.21 2.497 3.709 5.46 4.225 8.635H46V57H0v-8.256h.096z"/>
</svg>
