<svg xmlns="http://www.w3.org/2000/svg" xmlns:xlink="http://www.w3.org/1999/xlink" width="42" height="50" viewBox="0 0 42 50">
    <defs>
        <path id="a" d="M0 .169h41.72V49.71H0z"/>
    </defs>
    <g fill="none" fill-rule="evenodd">
        <g>
            <mask id="b" fill="#fff">
                <use xlink:href="#a"/>
            </mask>
            <path fill="#0001FE" d="M41.667 12.925c-.026-1.338-.05-2.601-.05-3.824 0-.957-.778-1.734-1.737-1.734-7.433 0-13.092-2.131-17.809-6.707a1.74 1.74 0 0 0-2.423 0C14.932 5.236 9.274 7.367 1.84 7.367c-.96 0-1.738.777-1.738 1.734 0 1.223-.024 2.487-.05 3.825-.238 12.447-.565 29.495 20.238 36.69a1.755 1.755 0 0 0 1.138 0C42.23 42.42 41.905 25.372 41.667 12.924zM20.86 46.137C3.02 39.67 3.289 25.505 3.53 12.992c.014-.751.027-1.48.037-2.193 6.961-.292 12.527-2.398 17.293-6.539 4.766 4.141 10.332 6.247 17.294 6.54.01.712.024 1.44.038 2.19.24 12.514.509 26.68-17.332 33.147z" mask="url(#b)"/>
        </g>
        <path fill="#0001FE" d="M26.844 18.916l-8.387 8.37-3.58-3.573a1.74 1.74 0 0 0-2.458 0 1.73 1.73 0 0 0 0 2.453l4.809 4.798c.339.338.784.508 1.229.508.444 0 .889-.17 1.228-.508l9.617-9.596a1.73 1.73 0 0 0 0-2.452 1.74 1.74 0 0 0-2.458 0z"/>
    </g>
</svg>
