<svg xmlns="http://www.w3.org/2000/svg" width="38" height="60" viewBox="0 0 38 60">
    <g fill="#0001FE" fill-rule="evenodd">
        <path d="M28.019 14.698l-.832.485a2.078 2.078 0 0 0-1.015 2.07 7.451 7.451 0 0 1 0 1.925 2.078 2.078 0 0 0 1.016 2.068l.83.484a.17.17 0 0 1 .062.231l-1.36 2.377a.167.167 0 0 1-.229.062l-.831-.485a2.038 2.038 0 0 0-2.285.148 7.283 7.283 0 0 1-1.653.965 2.07 2.07 0 0 0-1.266 1.92v.968a.169.169 0 0 1-.167.169h-2.72a.169.169 0 0 1-.167-.17v-.966c0-.845-.497-1.6-1.265-1.92a7.285 7.285 0 0 1-1.653-.966 2.036 2.036 0 0 0-2.285-.148l-.832.485a.167.167 0 0 1-.229-.062l-1.36-2.377a.167.167 0 0 1-.016-.128.165.165 0 0 1 .078-.103l.831-.484a2.078 2.078 0 0 0 1.015-2.07 7.447 7.447 0 0 1 0-1.926 2.077 2.077 0 0 0-1.016-2.067l-.83-.485a.17.17 0 0 1-.062-.23l1.36-2.377a.164.164 0 0 1 .102-.079.162.162 0 0 1 .127.017l.831.484a2.039 2.039 0 0 0 2.285-.148 7.288 7.288 0 0 1 1.653-.964 2.07 2.07 0 0 0 1.266-1.922v-.966c0-.093.075-.17.167-.17h2.72c.092 0 .167.077.167.17v.967c0 .845.497 1.6 1.266 1.92.588.247 1.144.571 1.653.966a2.037 2.037 0 0 0 2.284.148l.832-.485a.162.162 0 0 1 .127-.017c.031.008.073.029.102.079l1.36 2.376c.029.05.025.098.017.129a.165.165 0 0 1-.078.102zm.117 2.143l.832-.484a2.097 2.097 0 0 0 .756-2.847l-1.36-2.377a2.054 2.054 0 0 0-2.821-.763l-.832.485a.162.162 0 0 1-.18-.008 9.165 9.165 0 0 0-2.083-1.216.163.163 0 0 1-.094-.151v-.967c0-1.15-.926-2.084-2.065-2.084h-2.72a2.077 2.077 0 0 0-2.065 2.084v.966a.163.163 0 0 1-.094.152c-.743.31-1.444.72-2.084 1.216a.161.161 0 0 1-.179.008l-.831-.485a2.054 2.054 0 0 0-2.821.763l-1.36 2.377a2.087 2.087 0 0 0-.207 1.581c.143.538.485.987.963 1.266l.83.484c.058.034.091.098.083.16a9.465 9.465 0 0 0 0 2.426.165.165 0 0 1-.082.16l-.831.485a2.097 2.097 0 0 0-.756 2.847l1.36 2.377a2.058 2.058 0 0 0 2.821.763l.832-.485a.162.162 0 0 1 .18.008c.639.496 1.34.905 2.082 1.215a.163.163 0 0 1 .094.152v.967c0 1.15.926 2.084 2.065 2.084h2.72a2.077 2.077 0 0 0 2.065-2.084v-.967c0-.067.038-.128.094-.152a9.187 9.187 0 0 0 2.084-1.215.162.162 0 0 1 .179-.008l.831.484a2.058 2.058 0 0 0 2.822-.763l1.36-2.376c.569-.996.23-2.273-.756-2.847l-.831-.485a.165.165 0 0 1-.083-.16 9.46 9.46 0 0 0 0-2.425.165.165 0 0 1 .082-.16z"/>
        <path d="M18.57 20.84a2.839 2.839 0 0 1 0-5.677 2.839 2.839 0 0 1 0 5.677zm0-7.569a4.731 4.731 0 0 0 0 9.462 4.731 4.731 0 0 0 0-9.462z"/>
        <path d="M25.719 33.715a.946.946 0 0 0-.54.854v.83l-2.917.244a.945.945 0 0 0 .157 1.886l2.76-.23v1.885L11.96 40.288v-1.886l5.86-.49a.945.945 0 0 0-.157-1.885l-5.703.476V34.57a.946.946 0 0 0-.539-.854c-5.853-2.787-9.594-8.782-9.532-15.273.043-4.452 1.83-8.632 5.029-11.767C10.07 3.585 14.2 1.892 18.57 1.892c.07 0 .14 0 .211.002 9.082.113 16.47 7.611 16.47 16.714 0 6.42-3.742 12.35-9.533 15.107zm4.865 9.178h-3.516v-4.932l3.516 4.932zm-5.404.076l-13.22 1.104v-1.886l13.22-1.104v1.886zm0 3.578a.13.13 0 0 1-.13.13H12.09a.13.13 0 0 1-.13-.13v-.575l13.22-1.104v1.68zm-15.108-3.654H6.556l3.516-4.932v4.932zm24.115-14.212a18.567 18.567 0 0 0 2.953-10.073c0-4.93-1.904-9.575-5.361-13.08A18.439 18.439 0 0 0 18.57 0C13.703 0 9.104 1.885 5.597 5.322 2.037 8.812.05 13.465.001 18.424a18.568 18.568 0 0 0 2.907 10.184 18.617 18.617 0 0 0 6.931 6.423l-5.077 7.123a1.66 1.66 0 0 0-.125 1.729c.286.557.852.902 1.477.902h3.958v1.762c0 1.116.906 2.023 2.019 2.023h12.958a2.023 2.023 0 0 0 2.02-2.023v-1.761h3.958c.625 0 1.19-.346 1.477-.903a1.66 1.66 0 0 0-.126-1.729l-5.077-7.122a18.627 18.627 0 0 0 6.886-6.351zM18.929 55.714c-.592 0-1.072.384-1.072.857v1.143c0 .474.48.857 1.072.857.591 0 1.071-.383 1.071-.857v-1.143c0-.473-.48-.857-1.071-.857M13.929 49.286c-.592 0-1.072.423-1.072.945v8.824c0 .522.48.945 1.072.945.591 0 1.071-.423 1.071-.945V50.23c0-.522-.48-.945-1.071-.945M23.929 49.286c-.592 0-1.072.423-1.072.945v8.824c0 .522.48.945 1.072.945.591 0 1.071-.423 1.071-.945V50.23c0-.522-.48-.945-1.071-.945M18.929 49.286c-.592 0-1.072.41-1.072.918v2.45c0 .506.48.917 1.072.917.591 0 1.071-.41 1.071-.918v-2.449c0-.507-.48-.918-1.071-.918"/>
    </g>
</svg>
