<?xml version="1.0" encoding="iso-8859-1"?>
<!-- Generator: Adobe Illustrator 21.0.1, SVG Export Plug-In . SVG Version: 6.00 Build 0)  -->
<svg version="1.1" id="&#x421;&#x43B;&#x43E;&#x439;_1"
	 xmlns="http://www.w3.org/2000/svg" xmlns:xlink="http://www.w3.org/1999/xlink" x="0px" y="0px" viewBox="0 0 207 59"
	 style="enable-background:new 0 0 207 59;" xml:space="preserve">
<path style="fill:#FFFFFF;" d="M39,24.924V20l6.725,9.93L39,40v-4.924H25.45V24.924H39z M0,0h98v59H0V0z M59,40h5.418V24.924h8.164
	V40H78V20H59V40z M20,40h19h5.643L58,20h-5.643l-3.83,5.734L44.643,20H39H20V40z M119.864,27.224c1.622,0,2.288-0.882,2.682-1.755
	l-1.332-0.476c-0.21,0.476-0.552,1.058-1.35,1.058c-1.034,0-1.508-0.811-1.508-1.974c0-1.164,0.43-1.922,1.482-1.922
	c0.754,0,1.157,0.511,1.324,0.961l1.305-0.424c-0.394-0.987-1.095-1.71-2.664-1.71c-2.024,0-2.954,1.191-2.954,3.095
	C116.849,25.893,117.796,27.224,119.864,27.224z M124.824,23.636h1.867l0,3.5h1.42v-4.452h-4.707v4.452h1.42V23.636z
	 M175.084,21.132h-0.955v1.014h0.955V21.132z M130.722,22.684h-1.42v4.452h1.42V22.684z M123.948,31.298v0.001h1.411v-0.961h-1.411
	V31.298z M123.948,36.597h1.42v-4.452h-1.42V36.597z M117.19,36.597h1.499v-4.884h2.429v4.884h1.498v-6.065h-5.426V36.597z
	 M156.058,22.684v4.451h1.42v-1.736c0.132,0,0.307-0.027,0.412-0.062l1.034,1.798h1.543l-1.508-2.318
	c0.105-0.088,0.342-0.335,0.482-0.573l0.999-1.56h-1.42l-0.665,1.075c-0.36,0.591-0.623,0.697-0.877,0.697v-1.772H156.058z
	 M152.61,25.205h0.001c-0.308,0.591-0.65,0.846-1.14,0.846c-0.21,0-0.465-0.062-0.588-0.114v1.207
	c0.115,0.045,0.491,0.079,0.72,0.079c1.112,0,1.849-0.616,2.55-2.08l1.99-4.072h-1.552l-1.201,2.803l-1.411-2.803h-1.542
	l2.243,4.002L152.61,25.205z M172.858,27.136h1.42v-4.452h-1.42V27.136z M130.714,20.877h-1.412v0.96h1.412V20.877z M173.033,21.132
	h-0.955v1.014h0.955V21.132z M161.132,23.723c0-0.449-0.035-0.793-0.044-1.04h1.376c0.027,0.115,0.07,0.512,0.07,0.732h0.018
	c0.28-0.555,0.807-0.82,1.481-0.82c1.368,0,1.964,0.882,1.964,2.293c0,1.428-0.623,2.327-2.034,2.327h0
	c-0.57,0-1.113-0.212-1.411-0.793h-0.026c0.026,0.07,0.026,0.52,0.026,0.766v1.905h-1.42V23.723z M162.534,24.923
	c0,1.067,0.544,1.331,1.009,1.331c0.604,0,0.964-0.361,0.964-1.366c0-0.926-0.325-1.332-0.956-1.332
	C163.087,23.556,162.534,23.839,162.534,24.923z M190.474,25.681c0,0.89-0.561,1.455-1.692,1.455h-2.577v-4.452h1.42v1.64h1.157
	C189.904,24.324,190.474,24.791,190.474,25.681z M188.992,25.716c0-0.45-0.315-0.573-0.788-0.573h0h-0.579v1.173h0.544
	C188.686,26.316,188.992,26.192,188.992,25.716z M178.756,24.359h-1.866v-1.675h-1.42v4.451h1.42l-0.001-1.815h1.867v1.815h1.42
	v-4.451h-1.42V24.359z M168.432,36.597h1.42v-4.452h-1.42V36.597z M175.514,35.301c0,0.794-0.517,1.296-1.753,1.296h-2.717v-4.452
	h2.524c1.2,0,1.736,0.38,1.736,1.084c0,0.52-0.298,0.89-0.903,0.988v0.017C175.102,34.304,175.514,34.719,175.514,35.301z
	 M172.464,33.952h0.683c0.447,0,0.693-0.176,0.693-0.537c0-0.344-0.201-0.503-0.693-0.503h-0.683V33.952z M174.033,35.248
	c0-0.396-0.307-0.564-0.806-0.564h-0.763v1.12h0.815C173.769,35.804,174.033,35.662,174.033,35.248z M168.432,30.338v0.96v0.001
	h1.412v-0.961H168.432z M172.061,27.065c-0.324,0.07-0.683,0.123-1.095,0.123c-0.658,0-0.973-0.282-1.052-0.846h-0.026
	c-0.35,0.564-0.86,0.882-1.63,0.882c-1.026,0-1.622-0.485-1.622-1.367c0-1.049,0.92-1.401,2.112-1.428l1.14-0.018v-0.22
	c0-0.573-0.263-0.829-0.763-0.829c-0.465,0-0.728,0.212-0.789,0.626l-1.49-0.052c0.14-0.785,0.824-1.34,2.323-1.34
	c1.359,0,2.138,0.555,2.138,1.586v1.534c0,0.38,0.106,0.617,0.43,0.617c0.07,0,0.254-0.009,0.324-0.035V27.065z M169.888,25.055
	l-0.684,0.018c-0.605,0.026-1.078,0.14-1.078,0.66c0,0.38,0.228,0.618,0.71,0.618V26.35c0.701,0,1.052-0.607,1.052-1.057V25.055z
	 M205.082,24.826l1.64-2.142h-1.543l-0.894,1.454l-0.902-1.454h-1.534l1.63,2.151l-1.709,2.301h1.515l1-1.49l0.99,1.49h1.543
	L205.082,24.826z M183.436,26.254c-0.596,0-0.938-0.423-0.938-1.366c0-0.882,0.324-1.332,0.929-1.332
	c0.482,0,0.736,0.274,0.798,0.732l1.437-0.061c-0.166-0.918-0.92-1.64-2.217-1.64c-1.49,0-2.376,0.828-2.376,2.336
	c0,1.401,0.772,2.301,2.358,2.301c1.359,0,2.122-0.802,2.262-1.728l-1.429-0.053C184.198,25.998,183.883,26.254,183.436,26.254z
	 M198.299,24.553c-0.113,0.141-0.298,0.431-0.438,0.661c-0.096,0.141-0.184,0.291-0.28,0.441l0.035-0.335
	c0.009-0.185,0.034-0.388,0.034-0.503l0.001,0.001v-2.133h-1.385v4.452h1.35l1.42-1.79c0.14-0.176,0.315-0.476,0.482-0.732
	c0.096-0.15,0.184-0.3,0.28-0.467l-0.035,0.317c-0.026,0.185-0.035,0.397-0.035,0.565v2.105h1.385v-4.452h-1.332L198.299,24.553z
	 M194.575,24.244l0.999-1.56h-1.42l-0.666,1.075c-0.359,0.591-0.622,0.697-0.876,0.697v-1.772h-1.42v4.451h1.42v-1.736
	c0.14-0.001,0.278-0.022,0.412-0.062l1.034,1.798h1.543l-1.508-2.318C194.198,24.729,194.435,24.482,194.575,24.244z
	 M144.289,27.224c-1.026,0-1.622-0.485-1.622-1.367c0-1.049,0.92-1.401,2.112-1.428l1.14-0.018v-0.22
	c0-0.573-0.263-0.829-0.763-0.829c-0.464,0-0.727,0.212-0.789,0.626l-1.49-0.052c0.14-0.785,0.824-1.34,2.323-1.34
	c1.359,0,2.139,0.555,2.139,1.586v1.534c0,0.38,0.105,0.617,0.43,0.617c0.07,0,0.253-0.009,0.324-0.035v0.767
	c-0.36,0.081-0.727,0.122-1.096,0.123c-0.658,0-0.973-0.282-1.052-0.846h-0.026C145.568,26.906,145.059,27.224,144.289,27.224z
	 M144.157,25.733c0,0.38,0.228,0.618,0.71,0.618V26.35c0.701,0,1.052-0.607,1.052-1.057v-0.238l-0.684,0.018
	C144.63,25.099,144.157,25.213,144.157,25.733z M139.276,25.399c0.132,0,0.306-0.027,0.412-0.062l1.034,1.798h1.543l-1.508-2.318
	c0.105-0.088,0.342-0.335,0.482-0.573l0.999-1.56h-1.42l-0.666,1.075c-0.359,0.591-0.622,0.697-0.877,0.697v-1.772h-1.419v4.451
	h1.42V25.399z M132.238,36.597h1.42v-3.5h1.867v3.5h1.42v-4.452h-4.707V36.597z M134.026,24.403l0.105-0.768h1.105v3.499h1.428
	v-4.451h-3.672l-0.132,1.013c-0.236,1.949-0.543,2.539-1.025,2.539c-0.105,0-0.192-0.008-0.272-0.035v0.953
	c0.211,0.042,0.425,0.065,0.64,0.07C133.298,27.223,133.746,26.563,134.026,24.403z M143.001,34.349
	c0,1.428-0.623,2.327-2.034,2.327h0c-0.57,0-1.113-0.211-1.411-0.793h-0.026c0.026,0.07,0.026,0.52,0.026,0.767v1.904h-1.42v-5.368
	c0-0.45-0.035-0.794-0.044-1.04h1.376c0.027,0.114,0.07,0.51,0.07,0.73h0.018c0.28-0.555,0.806-0.819,1.481-0.819
	C142.404,32.057,143.001,32.939,143.001,34.349z M141.511,34.349c0-0.926-0.325-1.331-0.956-1.331c-0.464,0-1.017,0.282-1.017,1.366
	c0,1.067,0.544,1.331,1.008,1.331C141.151,35.715,141.511,35.354,141.511,34.349z M158.372,34.992
	c-0.044,0.168-0.148,0.565-0.148,0.697c-0.019-0.132-0.08-0.529-0.15-0.697l-1.034-2.847h-1.902v4.452h1.253v-2.424
	c0-0.169-0.009-0.529-0.035-0.829l-0.034-0.573c0.066,0.35,0.156,0.694,0.27,1.031l1,2.795h1.263l0.99-2.795
	c0.114-0.326,0.245-0.775,0.28-1.014l-0.035,0.547c-0.026,0.308-0.026,0.653-0.026,0.838v2.424h1.235v-4.452h-1.893L158.372,34.992z
	 M167.031,32.145h-1.42v3.5h-1.867v-3.5h-1.42v4.452h3.971l0.061,1.808h1.183l0.097-2.76h-0.605V32.145z M152.026,35.769
	c-0.525,0-0.884-0.336-0.92-1.05h1.719v-0.802h-1.71c0.044-0.635,0.386-0.952,0.903-0.952c0.465,0,0.728,0.247,0.798,0.573
	l1.437-0.088c-0.21-0.872-0.911-1.402-2.217-1.402c-1.516,0-2.376,0.837-2.376,2.337c0,1.445,0.833,2.3,2.358,2.3
	c1.359,0,2.113-0.617,2.253-1.463l-1.42-0.08C152.781,35.521,152.456,35.769,152.026,35.769z M145.937,34.014
	c-0.115,0.141-0.299,0.432-0.44,0.661c-0.096,0.141-0.183,0.291-0.28,0.441l0.035-0.335c0.009-0.185,0.036-0.388,0.036-0.502v-2.134
	h-1.386v4.452h1.35l1.42-1.79c0.141-0.176,0.316-0.476,0.483-0.732c0.096-0.149,0.184-0.299,0.28-0.466l-0.035,0.317
	c-0.026,0.184-0.035,0.396-0.035,0.564v2.107h1.385v-4.452h-1.333L145.937,34.014z M130.854,35.654h0.596l-0.088,2.75h-1.192
	l-0.061-1.807h-2.594c-0.027,0.6-0.036,1.199-0.062,1.807h-1.183l-0.088-2.75h0.412c0.43-0.697,0.719-1.64,0.86-2.989
	c0-0.035,0.025-0.484,0.043-0.52h3.357V35.654z M129.548,33.106h-0.955l-0.027,0.229c-0.114,0.996-0.298,1.763-0.622,2.319h1.604
	V33.106z"/>
</svg>
