<svg xmlns="http://www.w3.org/2000/svg" xmlns:xlink="http://www.w3.org/1999/xlink" width="207" height="59" viewBox="0 0 207 59">
    <defs>
        <path id="a" d="M0 59h206.818V.108H0z"/>
    </defs>
    <g fill="none" fill-rule="evenodd">
        <path fill="#4E4E4E" d="M0 59V0h98v59H0zm52.357-39l-3.83 5.734L44.643 20H39l6.725 9.93L39 40h5.643L58 20h-5.643zM39 24.924V20H20v20h19v-4.924H25.45V24.924H39zM59 20v20h5.418V24.924h8.164V40H78V20H59z"/>
        <g>
            <path fill="#4E4E4E" d="M116.849 24.077c0-1.904.93-3.095 2.954-3.095 1.569 0 2.27.723 2.664 1.71l-1.305.424c-.167-.45-.57-.961-1.324-.961-1.052 0-1.482.758-1.482 1.922 0 1.163.474 1.974 1.508 1.974.798 0 1.14-.582 1.35-1.058l1.332.476c-.394.873-1.06 1.755-2.682 1.755-2.068 0-3.015-1.331-3.015-3.147M126.691 23.636h-1.867v3.5h-1.42v-4.452h4.707v4.452h-1.42z"/>
            <mask id="b" fill="#fff">
                <use xlink:href="#a"/>
            </mask>
            <path fill="#4E4E4E" d="M129.302 27.136h1.42v-4.452h-1.42v4.452zm0-5.299h1.412v-.96h-1.412v.96zM135.236 27.135v-3.5h-1.105l-.105.768c-.28 2.16-.728 2.82-1.823 2.82a3.69 3.69 0 0 1-.64-.07V26.2c.08.027.167.035.272.035.482 0 .789-.59 1.025-2.539l.132-1.013h3.672v4.451h-1.428zM137.855 22.684h1.42v1.772c.255 0 .518-.106.877-.697l.666-1.075h1.42l-.999 1.56c-.14.238-.377.485-.482.573l1.508 2.318h-1.543l-1.034-1.798c-.106.035-.28.062-.412.062v1.736h-1.42v-4.451zM144.867 26.35c.701 0 1.052-.607 1.052-1.057v-.238l-.684.018c-.605.026-1.078.14-1.078.66 0 .38.228.618.71.618m-.088-1.922l1.14-.018v-.22c0-.573-.263-.829-.763-.829-.464 0-.727.212-.789.626l-1.49-.052c.14-.785.824-1.34 2.323-1.34 1.359 0 2.139.555 2.139 1.586v1.534c0 .38.105.617.43.617.07 0 .253-.009.324-.035v.767a5.09 5.09 0 0 1-1.096.123c-.658 0-.973-.282-1.052-.846h-.026c-.351.564-.86.882-1.63.882-1.026 0-1.622-.485-1.622-1.367 0-1.049.92-1.401 2.112-1.428M152.61 25.205l.07-.132-2.243-4.002h1.542l1.411 2.803 1.201-2.803h1.552l-1.99 4.072c-.701 1.464-1.438 2.08-2.55 2.08-.229 0-.605-.034-.72-.079v-1.207c.123.052.378.114.588.114.49 0 .832-.255 1.14-.846M156.058 22.684h1.42v1.772c.254 0 .517-.106.877-.697l.665-1.075h1.42l-.999 1.56c-.14.238-.377.485-.482.573l1.508 2.318h-1.543l-1.034-1.798c-.105.035-.28.062-.412.062v1.736h-1.42v-4.451zM163.551 23.556c-.464 0-1.017.283-1.017 1.367 0 1.067.544 1.331 1.009 1.331.604 0 .964-.361.964-1.366 0-.926-.325-1.332-.956-1.332m.412 3.659c-.57 0-1.113-.212-1.411-.793h-.026c.026.07.026.52.026.766v1.905h-1.42v-5.37c0-.449-.035-.793-.044-1.04h1.376c.027.115.07.512.07.732h.018c.28-.555.807-.82 1.481-.82 1.368 0 1.964.882 1.964 2.293 0 1.428-.623 2.327-2.034 2.327M168.836 26.35c.701 0 1.052-.607 1.052-1.057v-.238l-.684.018c-.605.026-1.078.14-1.078.66 0 .38.228.618.71.618m-.088-1.922l1.14-.018v-.22c0-.573-.263-.829-.763-.829-.465 0-.728.212-.789.626l-1.49-.052c.14-.785.824-1.34 2.323-1.34 1.359 0 2.138.555 2.138 1.586v1.534c0 .38.106.617.43.617.07 0 .254-.009.324-.035v.767c-.324.07-.683.123-1.095.123-.658 0-.973-.282-1.052-.846h-.026c-.35.564-.86.882-1.63.882-1.026 0-1.622-.485-1.622-1.367 0-1.049.92-1.401 2.112-1.428M174.129 22.146h.955v-1.014h-.955v1.014zm-1.271 4.99h1.42v-4.452h-1.42v4.452zm-.78-4.99h.955v-1.014h-.955v1.014zM176.89 27.135h-1.42v-4.451h1.42v1.675h1.866v-1.675h1.42v4.451h-1.42V25.32h-1.867zM183.445 22.587c1.297 0 2.051.722 2.217 1.64l-1.437.061c-.062-.458-.316-.732-.798-.732-.605 0-.929.45-.929 1.332 0 .943.342 1.366.938 1.366.447 0 .762-.256.824-.811l1.429.053c-.14.926-.903 1.728-2.262 1.728-1.586 0-2.358-.9-2.358-2.301 0-1.508.886-2.336 2.376-2.336M188.204 25.143h-.579v1.173h.544c.517 0 .823-.124.823-.6 0-.45-.315-.573-.788-.573m.578 1.993h-2.577v-4.452h1.42v1.64h1.157c1.122 0 1.692.467 1.692 1.357 0 .89-.561 1.455-1.692 1.455M191.192 22.684h1.42v1.772c.254 0 .517-.106.876-.697l.666-1.075h1.42l-.999 1.56c-.14.238-.377.485-.482.573l1.508 2.318h-1.543l-1.034-1.798a1.49 1.49 0 0 1-.412.062v1.736h-1.42v-4.451zM197.65 24.817c0 .115-.025.318-.034.503l-.035.335c.096-.15.184-.3.28-.441.14-.23.325-.52.438-.661l1.482-1.87h1.332v4.452h-1.385V25.03c0-.168.009-.38.035-.565l.035-.317c-.096.167-.184.317-.28.467-.167.256-.342.556-.482.732l-1.42 1.79h-1.35v-4.452h1.385v2.133zM204.285 24.138l.894-1.454h1.543l-1.64 2.142 1.736 2.31h-1.543l-.99-1.49-1 1.49h-1.515l1.709-2.301-1.63-2.151h1.534zM117.19 36.597v-6.065h5.426v6.065h-1.498v-4.884h-2.429v4.884zM123.948 36.597h1.42v-4.452h-1.42v4.452zm0-5.298h1.411v-.961h-1.411v.96zM129.548 35.654v-2.548h-.955l-.027.229c-.114.996-.298 1.763-.622 2.319h1.604zm1.814 2.75h-1.192l-.061-1.807h-2.594c-.027.6-.036 1.199-.062 1.807h-1.183l-.088-2.75h.412c.43-.697.719-1.64.86-2.989 0-.035.025-.484.043-.52h3.357v3.509h.596l-.088 2.75zM135.525 33.097h-1.867v3.5h-1.42v-4.452h4.707v4.452h-1.42zM140.555 33.018c-.464 0-1.017.282-1.017 1.366 0 1.067.544 1.331 1.008 1.331.605 0 .965-.361.965-1.366 0-.926-.325-1.331-.956-1.331m.412 3.658c-.57 0-1.113-.211-1.411-.793h-.026c.026.07.026.52.026.767v1.904h-1.42v-5.368c0-.45-.035-.794-.044-1.04h1.376c.027.114.07.51.07.73h.018c.28-.555.806-.819 1.481-.819 1.367 0 1.964.882 1.964 2.292 0 1.428-.623 2.327-2.034 2.327M145.288 34.279c0 .114-.027.317-.036.502l-.035.335c.097-.15.184-.3.28-.441.141-.229.325-.52.44-.661l1.48-1.869h1.333v4.452h-1.385V34.49c0-.168.009-.38.035-.564l.035-.317c-.096.167-.184.317-.28.466-.167.256-.342.556-.483.732l-1.42 1.79h-1.35v-4.452h1.386v2.134zM152.036 32.048c1.306 0 2.007.53 2.217 1.402l-1.437.088c-.07-.326-.333-.573-.798-.573-.517 0-.859.317-.903.952h1.71v.802h-1.719c.036.714.395 1.05.92 1.05.43 0 .755-.248.825-.627l1.42.08c-.14.846-.894 1.463-2.253 1.463-1.525 0-2.358-.855-2.358-2.3 0-1.5.86-2.337 2.376-2.337M157.592 36.597l-1-2.795a7.561 7.561 0 0 1-.27-1.031l.034.573c.026.3.035.66.035.829v2.424h-1.253v-4.452h1.902l1.034 2.847c.07.168.131.565.15.697 0-.132.104-.529.148-.697l1.034-2.847h1.893v4.452h-1.235v-2.424c0-.185 0-.53.026-.838l.035-.547c-.035.239-.166.688-.28 1.014l-.99 2.795h-1.263zM162.324 36.597v-4.452h1.42v3.5h1.867v-3.5h1.42v3.5h.605l-.097 2.76h-1.183l-.061-1.808zM168.432 36.597h1.42v-4.452h-1.42v4.452zm0-5.298h1.412v-.961h-1.412v.96zM173.227 34.684h-.763v1.12h.815c.49 0 .754-.142.754-.556 0-.396-.307-.564-.806-.564m-.08-1.772h-.683v1.04h.683c.447 0 .693-.176.693-.537 0-.344-.201-.503-.693-.503m.614 3.685h-2.717v-4.452h2.524c1.2 0 1.736.38 1.736 1.084 0 .52-.298.89-.903.988v.017c.701.07 1.113.485 1.113 1.067 0 .794-.517 1.296-1.753 1.296" mask="url(#b)"/>
        </g>
    </g>
</svg>
