<svg xmlns="http://www.w3.org/2000/svg" width="55" height="55" viewBox="0 0 55 55">
    <g fill="#FFF" fill-rule="evenodd">
        <path d="M52.222 52.222c-.406.406-.945.63-1.519.63a2.134 2.134 0 0 1-1.519-.63l-9.538-9.539a28.228 28.228 0 0 0 3.037-3.037l9.54 9.539c.405.405.629.944.629 1.518 0 .574-.224 1.113-.63 1.519zM2.148 21.484c0-10.661 8.675-19.336 19.336-19.336 10.662 0 19.336 8.675 19.336 19.336 0 4.101-1.273 8.021-3.681 11.337a19.43 19.43 0 0 1-4.318 4.318 19.17 19.17 0 0 1-11.337 3.681c-10.661 0-19.336-8.674-19.336-19.336zm32.927 16.629a21.557 21.557 0 0 0 3.038-3.038l3.047 3.048a26.075 26.075 0 0 1-3.037 3.037l-3.048-3.047zm18.666 9.552L39.402 33.326a21.291 21.291 0 0 0 3.567-11.842C42.969 9.638 33.33 0 21.484 0 9.638 0 0 9.638 0 21.484 0 33.331 9.638 42.97 21.484 42.97c4.25 0 8.324-1.23 11.842-3.566l3.964 3.963.002.002L47.665 53.74A4.269 4.269 0 0 0 50.703 55a4.268 4.268 0 0 0 3.038-1.259A4.267 4.267 0 0 0 55 50.703a4.266 4.266 0 0 0-1.259-3.038z"/>
        <path d="M21.5 36.813c-8.443 0-15.313-6.87-15.313-15.313 0-8.443 6.87-15.313 15.313-15.313 8.443 0 15.313 6.87 15.313 15.313 0 8.443-6.87 15.313-15.313 15.313zM39 21.5C39 11.85 31.15 4 21.5 4S4 11.85 4 21.5 11.85 39 21.5 39 39 31.15 39 21.5z"/>
    </g>
</svg>
