<svg xmlns="http://www.w3.org/2000/svg" width="41" height="50" viewBox="0 0 41 50">
    <g fill="#FFF" fill-rule="evenodd">
        <path d="M20.227 3.496c-5.565 0-10.566 2.62-13.72 7.186-3.146 4.552-3.875 10.305-1.953 15.39.48 1.297 1.256 2.567 2.31 3.788l13.363 15.695L33.58 29.87l.008-.01c1.054-1.221 1.83-2.492 2.306-3.777 1.927-5.096 1.197-10.85-1.949-15.401-3.155-4.567-8.155-7.186-13.72-7.186zm0 46.504c-.513 0-1-.225-1.331-.615L4.21 32.135c-1.32-1.528-2.309-3.16-2.93-4.838C-1.045 21.149-.168 14.19 3.63 8.693 7.447 3.17 13.497 0 20.227 0s12.779 3.169 16.596 8.693c3.798 5.497 4.675 12.456 2.346 18.615-.617 1.665-1.604 3.295-2.93 4.832L21.558 49.385c-.333.39-.82.615-1.331.615z"/>
        <path d="M20.227 13.87a6.301 6.301 0 0 0-6.294 6.293 6.3 6.3 0 0 0 6.294 6.294 6.3 6.3 0 0 0 6.293-6.294 6.301 6.301 0 0 0-6.293-6.294zm0 16.083c-5.4 0-9.79-4.391-9.79-9.79 0-5.398 4.392-9.79 9.79-9.79 5.398 0 9.79 4.392 9.79 9.79 0 5.399-4.392 9.79-9.79 9.79z"/>
    </g>
</svg>
