<svg xmlns="http://www.w3.org/2000/svg" width="46" height="50" viewBox="0 0 46 50">
    <g fill="#FFF" fill-rule="evenodd">
        <path d="M1.667 40.833V9.167H40v19.626a12.384 12.384 0 0 0-1.667-.345V11.667a.833.833 0 0 0-.833-.834H4.167a.833.833 0 0 0-.834.834v26.666c0 .46.373.834.834.834H24.29c-.079.552-.12 1.109-.124 1.666h-22.5zm0-37.5h1.666v.834a.833.833 0 0 0 1.667 0v-.834h1.667v.834a.833.833 0 0 0 1.666 0v-.834H10v.834a.833.833 0 0 0 1.667 0v-.834h1.666v.834a.833.833 0 0 0 1.667 0v-.834h11.667v.834a.833.833 0 0 0 1.666 0v-.834H30v.834a.833.833 0 0 0 1.667 0v-.834h1.666v.834a.833.833 0 0 0 1.667 0v-.834h1.667v.834a.833.833 0 0 0 1.666 0v-.834H40V7.5H1.667V3.333zM18.333 37.5h5v-5h-5v5zm-6.666 0h5v-5h-5v5zM5 37.5h5v-5H5v5zm0-6.667h5v-5H5v5zm0-6.666h5v-5H5v5zM5 17.5h5v-5H5v5zm6.667 0h5v-5h-5v5zm6.666 0h5v-5h-5v5zm6.667 0h5v-5h-5v5zm6.667 0h5v-5h-5v5zM25 25.833h5v4.445c-.287.182-.563.375-.833.579v-.024H25v-5zm-6.667 5h5v-5h-5v5zm-6.666 0h5v-5h-5v5zm0-6.666h5v-5h-5v5zm6.666 0h5v-5h-5v5zm6.667 0h5v-5h-5v5zm6.667 0h5v-5h-5v5zm3.845 4.225c-.167.015-.323.04-.484.061-.205.028-.408.056-.609.094a12.049 12.049 0 0 0-1.011.232c-.25.069-.5.143-.75.226l-.095.035a12.56 12.56 0 0 0-.895.344v-3.55h5v2.5c-.39 0-.775.022-1.156.058zm-9.72 6.3c-.12.211-.229.429-.334.647-.059.12-.119.24-.174.362-.09.2-.176.406-.256.612l-.025.061V32.5h2.375c-.568.632-1.07 1.32-1.5 2.053-.029.047-.06.092-.086.14zm.041 6.141c.003-.824.1-1.646.29-2.449.186-.799.463-1.574.826-2.309.036-.073.068-.148.106-.22.11-.212.23-.417.355-.62l.118-.194c.135-.212.278-.418.427-.62.03-.042.063-.083.094-.126.167-.218.34-.429.52-.633l.024-.028a10.981 10.981 0 0 1 4.36-2.967l.146-.055c.225-.079.454-.149.684-.214.105-.029.21-.055.316-.083.195-.048.391-.093.59-.13.166-.032.34-.055.51-.078.151-.022.3-.046.453-.06.333-.032.672-.052 1.015-.052.225 0 .448.017.666.032l.105.008h.02c1.052.08 2.087.31 3.073.688a.833.833 0 0 0 1.136-.776V2.5a.833.833 0 0 0-.834-.833h-2.5V.833a.833.833 0 0 0-1.666 0v.834H35V.833a.833.833 0 0 0-1.667 0v.834h-1.666V.833a.833.833 0 0 0-1.667 0v.834h-1.667V.833a.833.833 0 0 0-1.666 0v.834H15V.833a.833.833 0 0 0-1.667 0v.834h-1.666V.833a.833.833 0 0 0-1.667 0v.834H8.333V.833a.833.833 0 0 0-1.666 0v.834H5V.833a.833.833 0 0 0-1.667 0v.834h-2.5A.833.833 0 0 0 0 2.5v39.167c0 .46.373.833.833.833h24.209a.833.833 0 0 0 .833-.892l-.007-.096a8.325 8.325 0 0 1-.035-.679z"/>
        <path d="M36.667 48.333a7.5 7.5 0 1 1 7.5-7.5 7.508 7.508 0 0 1-7.5 7.5zm0-16.666a9.167 9.167 0 1 0 9.166 9.166 9.177 9.177 0 0 0-9.166-9.166z"/>
    </g>
</svg>
