<svg xmlns="http://www.w3.org/2000/svg" width="50" height="50" viewBox="0 0 50 50">
    <g fill="#0001FE" fill-rule="evenodd">
        <path d="M48.333 5h-5v-.833a2.5 2.5 0 1 1 5 0V5zm-4.166 15.345l1.321 1.322-11.75 11.75-1.761.44.44-1.761 11.75-11.751zm1.839-1.84a.957.957 0 0 1 1.322 0 .936.936 0 0 1 0 1.323l-.661.66-1.322-1.321.66-.661zm-4.34 27.328a2.5 2.5 0 1 1-5 0v-1.666a.833.833 0 0 0-.833-.834h-27.5V4.167a2.5 2.5 0 0 1 2.5-2.5H42.5c-.025.032-.042.07-.066.104-.047.067-.089.137-.132.207-.09.143-.17.29-.24.442-.038.083-.073.16-.105.242-.062.163-.114.33-.155.5-.02.077-.044.152-.059.231-.05.255-.075.514-.076.774v16.321l-10.59 10.59a.833.833 0 0 0-.219.387l-.833 3.333a.833.833 0 0 0 .22.791c.07.068.151.122.24.161a.874.874 0 0 0 .343.083h.005a.833.833 0 0 0 .202-.026l3.333-.833a.833.833 0 0 0 .388-.219l6.91-6.91v17.988zm-37.5 2.5a2.5 2.5 0 0 1-2.5-2.5V45H35v.833c.002.26.028.519.078.774.015.083.04.154.059.231.041.17.093.337.155.5a4.187 4.187 0 0 0 .345.683c.043.07.083.142.132.208.023.034.041.072.066.104H4.167zM45.834 0h-35a4.172 4.172 0 0 0-4.166 4.167v39.166H.833a.833.833 0 0 0-.833.834v1.666A4.172 4.172 0 0 0 4.167 50h35a4.172 4.172 0 0 0 4.166-4.167V26.178l5.173-5.172a2.601 2.601 0 0 0-3.678-3.678l-1.495 1.494V6.667h5.834c.46 0 .833-.373.833-.834V4.167A4.172 4.172 0 0 0 45.833 0z"/>
        <path d="M16 7h18V5H16zM16.12 14.392h-2.472V11.98h2.132l-1.066 1.04 1.165 1.137.242-.236v.471zm1.204-3.918a.816.816 0 0 0-.38-.102h-4.12a.814.814 0 0 0-.824.804v4.02c0 .444.369.804.824.804h4.12c.456 0 .825-.36.825-.804v-2.883L20 10.137 18.835 9l-1.511 1.474zM21 12h18v-2H21zM21 15h14v-2H21zM16.12 22.392h-2.472V19.98h2.132l-1.066 1.04 1.165 1.137.242-.236v.471zm1.204-3.918a.816.816 0 0 0-.38-.102h-4.12a.814.814 0 0 0-.824.804v4.02c0 .444.369.804.824.804h4.12c.456 0 .825-.36.825-.804v-2.883L20 18.137 18.835 17l-1.511 1.474zM21 20h18v-2H21zM21 24h14v-2H21zM16.12 30.392h-2.472V27.98h2.132l-1.066 1.04 1.165 1.137.242-.236v.471zm1.204-3.918a.816.816 0 0 0-.38-.102h-4.12a.814.814 0 0 0-.824.804v4.02c0 .444.369.804.824.804h4.12c.456 0 .825-.36.825-.804v-2.883L20 26.137 18.835 25l-1.511 1.474zM21 29h11v-2H21zM21 32h7v-2h-7zM16.12 39.392h-2.472V36.98h2.132l-1.066 1.04 1.165 1.137.242-.236v.471zm1.204-3.918a.816.816 0 0 0-.38-.102h-4.12a.814.814 0 0 0-.824.804v4.02c0 .444.369.804.824.804h4.12c.456 0 .825-.36.825-.804v-2.883L20 35.137 18.835 34l-1.511 1.474zM21 37h7v-2h-7zM21 40h14v-2H21z"/>
    </g>
</svg>
