<svg xmlns="http://www.w3.org/2000/svg" width="49" height="53" viewBox="0 0 49 53">
    <path fill="#0001FE" fill-rule="evenodd" d="M35.219 49.895h-3.063c-5.91 0-10.718-4.876-10.718-10.87V27.393c2.771 2.239 7.187 3.662 12.25 3.662 5.062 0 9.478-1.423 12.25-3.662v11.632c0 5.994-4.809 10.87-10.72 10.87zm-13.782-29.71c0-5.993 4.809-10.869 10.72-10.869v3.373a4.662 4.662 0 0 0-3.063 4.391v3.106c0 2.024 1.28 3.75 3.062 4.39v3.321c-2.838-.186-5.45-.888-7.47-2.026-2.064-1.163-3.248-2.67-3.248-4.133v-1.552zm12.25-4.658c.845 0 1.532.697 1.532 1.553v3.106c0 .856-.687 1.552-1.532 1.552a1.544 1.544 0 0 1-1.53-1.552V17.08c0-.856.686-1.553 1.53-1.553zm12.25 4.659v1.552c0 1.463-1.184 2.97-3.248 4.133-2.02 1.138-4.632 1.84-7.47 2.026v-3.32a4.662 4.662 0 0 0 3.062-4.391V17.08c0-2.024-1.28-3.75-3.062-4.391V9.316c5.91 0 10.718 4.876 10.718 10.87zM35.111 6.21c-2.468-4.34-7.278-6.768-12.27-6.1-6.038.808-10.591 6.3-10.591 12.775v13.51c0 2.569-2.06 4.659-4.594 4.659-2.533 0-4.593-2.09-4.593-4.659V1.553C3.063.695 2.377 0 1.53 0 .686 0 0 .695 0 1.553v24.843c0 4.281 3.435 7.764 7.656 7.764 4.222 0 7.657-3.483 7.657-7.764v-13.51c0-4.923 3.408-9.092 7.929-9.696a9.164 9.164 0 0 1 8.128 3.044c-7.234.415-12.995 6.513-12.995 13.952v18.84C18.375 46.73 24.557 53 32.156 53h3.063C42.818 53 49 46.731 49 39.025v-18.84c0-7.53-5.968-13.974-13.889-13.974z"/>
</svg>
