<svg xmlns="http://www.w3.org/2000/svg" xmlns:xlink="http://www.w3.org/1999/xlink" width="47" height="50" viewBox="0 0 47 50">
    <defs>
        <path id="a" d="M0 0h47v50H0z"/>
    </defs>
    <g fill="none" fill-rule="evenodd">
        <mask id="b" fill="#fff">
            <use xlink:href="#a"/>
        </mask>
        <path fill="#0001FE" d="M45.71 23.231L23.663 1.298a4.454 4.454 0 0 0-6.288 0L5.303 13.305c-1.737 1.727-1.737 4.582 0 6.315l2.002 2.042h4.618l-4.312-4.339a1.233 1.233 0 0 1-.344-.863c0-.18.044-.544.344-.847l1.594-1.537 7.575 7.586h7.272L12.84 10.454l6.845-6.837c.3-.299.654-.353.834-.353.186 0 .536.038.842.337l22.045 21.927c.3.304.344.652.344.837 0 .179-.076.527-.376.831l-1.25 1.21V33l3.558-3.507c1.736-1.733 1.77-4.535.028-6.262z" mask="url(#b)"/>
        <path fill="#0001FE" d="M35.62 24H4.543C2.095 24 0 25.948 0 28.37V40h40V28.37A4.351 4.351 0 0 0 35.62 24zM10.86 36.039a3.229 3.229 0 0 1-2.232-.889 3.236 3.236 0 0 1-2.23.889c-1.785 0-3.227-1.426-3.227-3.187 0-1.765 1.442-3.19 3.228-3.19.864 0 1.653.338 2.23.888a3.229 3.229 0 0 1 2.23-.889c1.785 0 3.226 1.426 3.226 3.191 0 1.76-1.441 3.187-3.225 3.187zM0 45.277C0 47.878 2.095 50 4.543 50H35.62c2.448 0 4.38-2.122 4.38-4.723V45H0v.277z" mask="url(#b)"/>
    </g>
</svg>
