<svg xmlns="http://www.w3.org/2000/svg" width="50" height="50" viewBox="0 0 50 50">
    <g fill="#0001FE" fill-rule="evenodd">
        <path d="M46.636 19.879l-1.51 1.511-2.071-2.072 1.51-1.511a1.464 1.464 0 1 1 2.071 2.072zM33.691 47.07H4.395a1.467 1.467 0 0 1-1.465-1.465V4.395c0-.808.657-1.465 1.465-1.465h21.972v7.324c0 .809.656 1.465 1.465 1.465h7.324v11.36l-4.322 4.325-2.07 2.07c-.161.161-.282.357-.354.573l-2.072 6.215a1.465 1.465 0 0 0 1.853 1.853l6.215-2.072c.216-.072.412-.193.573-.354l.177-.177v10.093c0 .808-.657 1.465-1.465 1.465zM30.584 3.36l4.143 4.143c.465.465.43.974.43 1.287h-5.86V2.93c.277 0 .81-.047 1.287.43zm5.43 27.151l-2.072-2.072 7.042-7.047 2.071 2.072-7.041 7.047zm-2.071 2.072l-.792.791-3.107 1.036 1.036-3.107.791-.792 2.072 2.072zm14.765-16.847a4.4 4.4 0 0 0-6.215 0l-4.407 4.411V8.538a4.365 4.365 0 0 0-1.287-3.108l-4.143-4.143A4.365 4.365 0 0 0 29.548 0H4.395A4.4 4.4 0 0 0 0 4.395v41.21A4.4 4.4 0 0 0 4.395 50H33.69a4.4 4.4 0 0 0 4.395-4.395V32.581L48.708 21.95a4.392 4.392 0 0 0 0-6.215z"/>
        <path d="M7.324 17.578h20.508a1.465 1.465 0 0 0 0-2.93H7.324a1.465 1.465 0 0 0 0 2.93M7.324 23.438h14.649a1.465 1.465 0 0 0 0-2.93H7.324a1.465 1.465 0 0 0 0 2.93M7.324 29.297h14.649a1.465 1.465 0 0 0 0-2.93H7.324a1.465 1.465 0 0 0 0 2.93M23.438 33.691c0-.809-.656-1.464-1.465-1.464H7.324a1.465 1.465 0 0 0 0 2.93h14.649c.809 0 1.465-.657 1.465-1.466M27.832 41.21h-8.789a1.465 1.465 0 0 0 0 2.93h8.789a1.465 1.465 0 0 0 0-2.93"/>
    </g>
</svg>
