<svg xmlns="http://www.w3.org/2000/svg" width="50" height="47" viewBox="0 0 50 47">
    <g fill="#0001FE" fill-rule="evenodd">
        <path d="M42.138 3.157h-6.243V1.6c0-.934-.624-1.558-1.561-1.558-.936 0-1.56.624-1.56 1.558v1.558H17.166V1.6c0-.934-.624-1.558-1.56-1.558-.937 0-1.561.624-1.561 1.558v1.558H7.803C3.433 3.157 0 6.584 0 10.946v28.04c0 4.363 3.433 7.79 7.803 7.79h34.335c4.37 0 7.802-3.427 7.802-7.79v-28.04c0-4.362-3.433-7.789-7.802-7.789zM3.122 10.946c0-2.492 2.184-4.673 4.68-4.673h6.244v1.558c0 .934.624 1.558 1.56 1.558.937 0 1.561-.623 1.561-1.558V6.273h15.607v1.558c0 .934.624 1.558 1.56 1.558.937 0 1.562-.623 1.562-1.558V6.273h6.242c2.497 0 4.682 2.18 4.682 4.673v4.674H3.122v-4.674zm43.697 28.04c0 2.493-2.184 4.675-4.681 4.675H7.803c-2.497 0-4.681-2.182-4.681-4.674V18.736h43.697v20.25z"/>
        <path d="M10.924 38.987c.937 0 1.561-.311 2.186-.935.624-.622.936-1.558.936-2.18 0-.624-.312-1.558-.936-2.182-1.25-1.246-3.122-1.246-4.37 0-.625.624-.937 1.246-.937 2.182 0 .622.312 1.558.936 2.18.625.624 1.25.935 2.185.935zM10.924 29.64c.937 0 1.561-.311 2.186-.934.624-.624.936-1.558.936-2.182 0-.623-.312-1.558-.936-2.18-1.25-1.247-3.122-1.247-4.37 0-.625.622-.937 1.246-.937 2.18 0 .935.312 1.558.936 2.182.625.623 1.25.934 2.185.934zM20.289 38.987c.936 0 1.56-.311 2.184-.935.625-.622.936-1.558.936-2.18 0-.624-.311-1.558-.936-2.182-1.248-1.246-3.121-1.246-4.37 0-.624.624-.936 1.558-.936 2.182 0 .622.312 1.558.937 2.18.624.624 1.248.935 2.185.935zM20.289 29.64c.936 0 1.56-.311 2.184-.934.625-.624.936-1.558.936-2.182 0-.623-.311-1.558-.936-2.18-1.248-1.247-3.121-1.247-4.37 0-.624.622-.936 1.557-.936 2.18 0 .624.312 1.558.937 2.182.624.623 1.248.934 2.185.934zM29.652 38.987c.937 0 1.561-.311 2.185-.935.624-.622.936-1.246.936-2.18 0-.936-.312-1.558-.936-2.182-1.248-1.246-3.12-1.246-4.37 0-.624.624-.936 1.558-.936 2.182 0 .622.312 1.558.936 2.18.625.624 1.25.935 2.185.935zM29.652 29.64c.937 0 1.561-.311 2.185-.934.624-.624.936-1.247.936-2.182 0-.623-.312-1.558-.936-2.18-1.248-1.247-3.12-1.247-4.37 0-.624.622-.936 1.557-.936 2.18 0 .624.312 1.558.936 2.182.625.623 1.25.934 2.185.934zM39.016 38.987c.936 0 1.56-.311 2.185-.935.624-.622.937-1.558.937-2.18 0-.624-.313-1.558-.937-2.182-1.249-1.246-3.121-1.246-4.37 0-.624.624-.936 1.246-.936 2.182 0 .622.312 1.558.936 2.18.624.624 1.249.935 2.185.935zM39.016 29.64c.936 0 1.56-.311 2.185-.934.624-.624.937-1.247.937-2.182 0-.623-.313-1.558-.937-2.18-1.249-1.247-3.121-1.247-4.37 0-.624.622-.936 1.557-.936 2.18 0 .624.312 1.558.936 2.182.624.623 1.249.934 2.185.934z"/>
    </g>
</svg>
