<svg xmlns="http://www.w3.org/2000/svg" width="16" height="19" viewBox="0 0 16 19">
    <path fill="#FFF" fill-rule="evenodd" d="M13.393 13.897H12.35l.005-.605c0-.269.22-.49.491-.49h.067c.27 0 .492.221.492.49l-.012.605zM9.482 12.6c-.264 0-.481.178-.481.395v2.945c0 .218.217.395.48.395.267 0 .483-.177.483-.395v-2.945c0-.217-.216-.395-.482-.395zm6.351-1.648v5.604c0 1.344-1.166 2.444-2.59 2.444H2.59C1.165 19 0 17.9 0 16.556v-5.604c0-1.344 1.165-2.444 2.59-2.444h10.653c1.424 0 2.59 1.1 2.59 2.444zM3.301 17.164v-5.902h1.32v-.875l-3.52-.005v.86l1.099.003v5.92h1.1zm3.958-5.023h-1.1v3.152c0 .456.027.684-.002.764-.09.244-.492.504-.65.027-.025-.084-.003-.336-.003-.77l-.003-3.173H4.405l.003 3.123c0 .48-.012.836.004 1 .027.286.016.62.282.81.496.357 1.446-.053 1.683-.564l-.002.652.884.001v-5.022zm3.522 3.61l-.002-2.625c0-.998-.75-1.597-1.765-.79l.006-1.95-1.1.003-.005 6.732.904-.014.082-.42c1.156 1.062 1.882.335 1.88-.936zm3.446-.349l-.825.006c-.001.032-.003.07-.003.111v.46a.45.45 0 0 1-.451.447h-.162a.45.45 0 0 1-.451-.446v-1.213h1.89v-.71c0-.52-.013-1.04-.055-1.338-.136-.94-1.456-1.09-2.123-.608-.21.15-.369.352-.462.623-.093.27-.14.639-.14 1.109v1.564c0 2.6 3.159 2.232 2.782-.005zM9.993 6.911c.056.137.144.25.265.334.117.083.269.124.45.124a.699.699 0 0 0 .422-.13c.121-.09.224-.22.308-.395l-.02.431h1.227V2.056h-.966v4.062a.402.402 0 0 1-.805 0V2.056H9.866v3.52c0 .45.008.748.022.9.013.15.048.294.105.435zm-3.72-2.948c0-.502.043-.892.125-1.175.084-.281.234-.507.452-.677.216-.17.494-.257.832-.257.283 0 .526.056.73.165.204.11.361.252.47.428.112.176.187.358.228.543.04.19.061.472.061.855v1.32c0 .484-.02.84-.057 1.066a1.676 1.676 0 0 1-.242.634c-.123.196-.28.342-.472.434-.194.095-.415.14-.666.14a1.83 1.83 0 0 1-.709-.12.965.965 0 0 1-.453-.361 1.614 1.614 0 0 1-.23-.585c-.047-.228-.069-.572-.069-1.028V3.963zm.961 2.072c0 .296.22.537.489.537.268 0 .486-.24.486-.537V3.257c0-.294-.218-.536-.486-.536s-.489.242-.489.536v2.778zM3.84 7.44h1.157l.002-4.003L6.365.007H5.1l-.727 2.546L3.635 0H2.38l1.456 3.438.002 4z"/>
</svg>
