<svg xmlns="http://www.w3.org/2000/svg" width="41" height="44" viewBox="0 0 41 44">
    <path fill="#0001fe" fill-rule="evenodd" d="M40.84 31.033a.788.788 0 0 0-.526-.4 146.75 146.75 0 0 0-10.442-1.825c-.008-.026-.013-.053-.025-.079-2.565-5.987-3.415-5.987-3.872-5.987-.55 0-3.284.562-5.51 1.04v-5.763a.777.777 0 0 0 .1-.006 8.894 8.894 0 0 0 8.602-2.312 8.896 8.896 0 0 0 2.2-8.99.786.786 0 0 0-.515-.515 8.897 8.897 0 0 0-9.976 3.378A10.747 10.747 0 0 0 17.8 3.307 10.75 10.75 0 0 0 6.938.65a.788.788 0 0 0-.515.514 10.751 10.751 0 0 0 2.659 10.864 10.745 10.745 0 0 0 9.809 2.932v9.165l-.797.175c-1.646-.317-4.356-.665-5.27.248l-1.442 1.443-2.185.728c-2.654.885-3.563 4.806-3.663 5.273a17.403 17.403 0 0 1-2.646-1.963.787.787 0 0 0-.527-.202C.618 29.826 0 30.674 0 31.4c0 .227 0 .65 1.655 2.568a39.036 39.036 0 0 0 3.83 3.831c2.833 2.468 7.048 5.409 11.045 5.409 4.604 0 7.896-.97 10.3-1.676 1.302-.383 2.33-.686 3.081-.686 2.4 0 7.018-.765 7.214-.798a.787.787 0 0 0 .6-.484l3.15-7.871a.788.788 0 0 0-.035-.66zM22.975 9.509a7.325 7.325 0 0 1 7.004-1.925 7.325 7.325 0 0 1-1.926 7.003 7.32 7.32 0 0 1-6.36 2.056c.639-1.059 1.537-2.275 2.273-2.643a.787.787 0 1 0-.704-1.408c-.92.46-1.787 1.517-2.43 2.47a7.32 7.32 0 0 1 2.143-5.553zm-7.669-.28c2.065 1.376 2.81 4.214 2.822 4.26l.002.006a9.17 9.17 0 0 1-7.935-2.581 9.177 9.177 0 0 1-2.386-8.88 9.179 9.179 0 0 1 8.88 2.387 9.175 9.175 0 0 1 2.623 7.66c-.455-1.153-1.409-3.013-3.133-4.162a.787.787 0 1 0-.873 1.31zM7.069 32.342c.194-.97 1.044-3.603 2.626-4.13l2.361-.788a.79.79 0 0 0 .308-.19l1.561-1.561c.387-.238 2.295-.143 4.025.202.107.022.218.02.325-.003 3.129-.695 6.603-1.418 7.52-1.539.456.503 1.436 2.396 2.263 4.237a118.07 118.07 0 0 0-2.791-.314c-7.82-.782-12.32-.107-13.377 2.005-.212.424-.198.886.038 1.268.652 1.054 2.965 1.446 8.538 1.446.793 0 1.16.209 1.235.388.066.158-.017.413-.193.604-.403.24-3.056 1.005-6.878.765-2.154-.136-4.96-.627-7.758-2.009a.781.781 0 0 0 .197-.38zm29.36 6.224c-1.212.19-4.66.706-6.518.706-.978 0-2.102.33-3.525.75-2.312.68-5.478 1.611-9.856 1.611-3.404 0-7.157-2.587-9.706-4.758-2.714-2.312-4.562-4.557-5.117-5.385.107-.03.241-.055.377-.071 4.284 3.723 9.272 4.722 12.733 4.9 3.574.183 7.055-.49 7.78-1.213.647-.648.872-1.59.559-2.346-.21-.508-.84-1.36-2.69-1.36-4.904 0-6.528-.34-7.047-.607.497-.565 2.647-1.875 11.69-.97 6.111.61 11.804 1.712 13.956 2.154l-2.635 6.589z"/>
</svg>