<svg id="Слой_1" xmlns="http://www.w3.org/2000/svg" viewBox="0 0 1379.2 1764.3"><style>.st0{fill:url(#SVGID_1_)}.st1{fill:url(#SVGID_2_)}.st2{fill:url(#SVGID_3_)}.st3{fill:#fff}.st4{fill:#a6a6a6}.st5{fill:#dbdbdb}</style><title>Ресурс 7</title><g id="Слой_2"><g id="Слой_1-2"><linearGradient id="SVGID_1_" gradientUnits="userSpaceOnUse" y1="276.187" x2="446.12" y2="276.187" gradientTransform="matrix(1 0 0 -1 0 1764)"><stop offset="0" stop-color="#ffbd52"/><stop offset="1" stop-color="#d53b9f"/></linearGradient><path class="st0" d="M423.6 1347L0 1423.2l398.7 205.5 47.4-218.1z"/><linearGradient id="SVGID_2_" gradientUnits="userSpaceOnUse" x1="741.311" y1="1623.47" x2="741.311" y2="-187.26" gradientTransform="matrix(1 0 0 -1 0 1764)"><stop offset="0" stop-color="#ffbd52"/><stop offset="1" stop-color="#d53b9f"/></linearGradient><path class="st1" d="M446.1 1757.7l863.4-192.2c37.8-8.4 64.8-41.9 65-80.6l4.7-889.2c.1-27-8.5-53.2-24.7-74.8L963.2 0 103.4 41.1l378 706.3-35.3 1010.3z"/><linearGradient id="SVGID_3_" gradientUnits="userSpaceOnUse" y1="861.314" x2="523" y2="861.314" gradientTransform="matrix(1 0 0 -1 0 1764)"><stop offset="0" stop-color="#ffbd52"/><stop offset="1" stop-color="#d53b9f"/></linearGradient><path class="st2" d="M56 176.1l47.4-135L508 689.3c9.8 15.6 15 33.7 14.9 52.2v908c0 88.4-95.9 143.5-172.3 99.1L0 1544.5v-121.3l354.1 170.2c19.4 9.3 42.7 1.1 52-18.3 2.5-5.2 3.8-10.9 3.8-16.6l3.7-817.3L56 176.1z"/><path class="st3" d="M281.9 104.7L584.2 574l644.3-87.5L924.3 65z"/><path class="st4" d="M924.3 65v25.2l283.8 399.1 20.4-2.8z"/><path class="st5" d="M299.8 132.4l624.5-42.2V65l-642.4 39.7z"/></g></g><path class="st3" d="M103.4 142c92.1 149 183.3 298.4 274.3 448.1l34.1 56.1 34 56.2c5.7 9.7 10.2 20.2 13.5 31 3.3 10.8 5.2 22 5.7 33.3.2 2.8.2 5.7.2 8.5v8.2l-.1 16.4-.2 32.8-1.9 262.7-2.4 262.7-1.4 131.3-1.6 131.3-.4 32.9c-.2 6-1.8 12-4.6 17.3-2.8 5.3-6.9 10-11.8 13.5s-10.5 6-16.4 7c-5.9 1.1-12.1.8-17.8-.9-1.4-.4-2.8-.9-4.2-1.5l-2-.9c-.7-.3-1.2-.6-1.9-.9l-7.4-3.6-14.7-7.2-117.9-57.9c-78.5-38.7-157.1-77.5-235.4-116.6 79.3 37.1 158.4 74.7 237.5 112.2l118.6 56.5 14.8 7.1 7.4 3.5c.6.3 1.3.6 1.8.9l1.7.7c1.2.4 2.3.9 3.5 1.2 4.8 1.3 9.8 1.6 14.7.6 4.8-.9 9.5-3 13.4-5.9 8-5.8 13-15.4 13.1-25.3l.1-32.7.6-131.3.7-131.3 1.9-262.7 2.4-262.7.4-32.8.2-16.4.1-8.2c0-2.7 0-5.3-.1-8-.5-10.6-2.2-21.1-5.2-31.3s-7.1-20-12.5-29.1L371 594.1c-89.6-150.4-179-301-267.6-452.1z"/><g id="Слой_2_1_"><path class="st3" d="M683.5 1000.2c-12.6 2.6-25.1 5-37.7 7.8-14 3-25.5 14.3-28.4 27.7-4.3 19.4 8.7 33.5 27.9 30 10.6-1.9 21.2-4.3 31.9-6.5 2.7-.6 4.9-.4 6.8 1.2 7.8 6.4 15.6 12.6 23.5 18.9.8.6 2.3 1.1 1.8 2.5-.5 1.5-2.1 1.3-3.2 1.5-20.5 4.2-41 8.8-61.5 12.5-28.3 5.1-50.6-9.3-56.5-35.7-6.9-31.2 18.2-70.7 51.2-79.9 28.2-7.8 56.5-12.5 84.8-18 16.6-3.2 28.9 2.4 34.8 17.3 7.4 18.5-3.6 42.1-24.3 52.6-4.3 2.2-3.4 3.1-1.1 5 12 9.5 24 19.1 35.9 28.8 1 .8 2.9 1.3 2.3 3.1-.6 1.7-2.6 1.5-4 1.8-10.3 2.2-20.7 4.2-31 6.4-3.1.8-6.2.2-8.3-1.7-12.3-10-24.8-19.9-37-29.9-2.3-1.9-4.7-2.4-7.9-1.7-12.4 2.7-24.8 5.2-37.3 7.6-9.3 1.8-15.5-2.7-15.6-11.3-.1-8.6 6.3-16.1 15.7-18 24.2-5 48.5-10 72.7-15 1.9-.3 3.9-.8 5.8-1.5 4.5-1.8 6.6-4.6 6.4-8.6-.2-3.8-2.8-5.6-7.3-5-1.3.2-2.7.5-4 .8l-36.4 7.3zm140.9 9c0 11.7 6.1 17.6 17 15.3 4.3-.9 8.4-3 12.3-6.5.6-.5 1.1-.5 1.4 0l.6 1.2c.3.4.1 1.1-.3 1.5-4.2 3.6-9 6-14 7-13.2 2.7-20.6-4.1-20.6-16.9v-17c0-6.3 1.8-11.8 5.4-16.4 3.6-4.6 8.7-7.6 15.3-8.9 5-1 9.9-.5 14 1.5.4.2.6.7.4 1.2v.1l-.6 1.4c-.2.5-.7.8-1.1.7-.1 0-.2-.1-.3-.1-4-1.9-8.1-2.4-12.3-1.6-11 2.2-17 10.8-17 22.3l-.2 15.2zm40.5 12.7c-.5.2-.9-.1-1-.6v-26.2c0-9.9 5.8-17.6 17.6-20 3.3-.7 6.5-.6 9.5.3.6.1.6.6.4 1.2l-.5 1.1c-.2.5-.7.9-1.1.8h-.2c-2.6-.8-5.4-.9-8.2-.3-9.5 1.9-14.2 8.2-14.2 17v25.3c.1.5-.3 1-.8 1.1h-.2l-1.3.3zm35.3-49.6c.5-.2.9.1 1 .6v23c0 10.9 3.8 15.7 12.9 13.9 4.8-1 9.4-4.8 12.9-11v-31c-.1-.5.3-1 .7-1.1h.2l1.4-.3c.5-.2.9.1 1 .6v41.8c0 12-5.7 19.3-17.9 21.8-4.1.9-8.2.6-11.9-.7-.5-.1-.7-.6-.5-1.1 0-.1 0-.1.1-.2l.6-1.2c.2-.6.7-.8 1.3-.7 3.1 1.2 6.7 1.4 10.3.7 8.7-1.8 14.7-6.1 14.7-18.2v-7c-4 6-8.7 9.5-14.2 10.6-9.7 2-14.9-3.9-14.9-15.3v-23.9c-.1-.5.3-1 .7-1.1h.2l1.4-.2zm72.7 10c0 11.2-5.5 19.5-15.3 21.6-5.7 1.2-10.6-.4-14.7-4.7v23.1c.1.5-.3 1-.8 1.1h-.2l-1.4.3c-.5.2-.9-.1-1-.6v-43.3c0-9.8 5.8-17.8 16.6-20 5.4-1.1 9.5-.4 12.3 2.1 2.9 2.5 4.4 6.2 4.4 11l.1 9.4zm-3.3-7.5c0-9.2-4.9-13.7-13.4-12-8.8 1.8-13.3 8.3-13.3 17.5v15.2c3.6 4.6 8.4 6.6 13.4 5.6 9.2-1.9 13.3-8.5 13.3-19.3v-7zm9.3-17.7c-.1-.5.3-1 .7-1.1h.2l7.9-1.6v-12.7c-.1-.5.3-1 .7-1.1h.2l1.4-.3c.5-.2.9.1 1 .6v12.9l14.8-3c.5-.2.9.1 1 .6v1.3c.1.5-.3 1-.7 1.1h-.2l-14.8 3V985c0 6 3.6 8.4 9.7 7.2 2.1-.4 4.2-1.3 6.1-2.6.6-.4 1.1-.3 1.4.2l.5 1c.3.6.2 1-.5 1.4-2.4 1.4-4.9 2.4-7.5 3-8.1 1.7-13.1-1.7-13.1-9.3v-28.4l-7.8 1.6c-.5.2-.9-.1-1-.6v-1.4zm35.6 18.7v-11.6c0-9.7 5.8-17.6 16.6-19.8 11-2.2 16.7 3.2 16.7 12.9V969c0 9.7-5.8 17.5-16.7 19.8-10.8 2.2-16.6-3.3-16.6-13zm3.3-1.6c0 9.1 4.5 13.2 13.3 11.4 8.8-1.8 13.4-7.8 13.4-16.9V959c0-9.2-4.6-13.2-13.4-11.4-8.8 1.8-13.3 7.8-13.3 16.9v9.7zm40.3-17.3c-.5.2-.9-.1-1-.6v-1.7c-.1-.5.3-1 .7-1.1h.2l19.2-3.9c.5-.2.9.1 1 .6v1.7c.1.5-.3 1-.7 1.1h-.2l-19.2 3.9zm71.4-28.1c0 7.4-4.1 13.3-10.6 16.7l12.7 19c.9 1.4.3 2.6-1.5 3l-5.8 1.2c-1.1.3-2.2-.1-2.7-1l-12.4-18.9-10.2 2.1v20.7c0 1.6-.7 2.4-2.3 2.8l-5.2 1.1c-1.5.3-2.3-.3-2.3-1.8V921c0-1.6.7-2.4 2.3-2.8l18.9-3.9c11.7-2.4 19.2 1.8 19.2 11.9l-.1 2.6zm-9.8-.5c0-5.3-3.3-7.2-10.1-5.8l-10.8 2.2v18.1l10.8-2.2c6.7-1.4 10.1-4.4 10.1-9.8v-2.5zm45.7 5.7c0-6.9-3.6-9.1-10.1-7.7-3.2.7-6.7 2.4-10.5 5.1-1.4 1-2.4 1-3.2-.2l-1.2-2c-.7-1.2-.5-2.3.8-3.3 4.6-3.6 9.8-6.1 15.1-7.2 12.3-2.5 18.4 2.5 18.4 13.2v10.5c0 10.7-6.5 18.2-18.5 20.6-5.8 1.2-10.4.9-13.6-1-3.2-1.9-4.8-4.6-4.8-8.1v-1.5c0-7.6 6-13.7 16.6-15.9l11-2.3v-.2zm-18.3 17.8c0 3.5 3.2 5.2 9.2 4 5.8-1.2 9.1-5.4 9.1-11.4v-3.5l-10.1 2.1c-5.3 1.1-8.1 3.9-8.1 7.6l-.1 1.2zm36.8-52.8c0-1.6.7-2.4 2.3-2.8l4.8-1c1.5-.3 2.3.3 2.3 1.8v5.3c0 1.6-.7 2.4-2.3 2.8l-4.8 1c-1.5.3-2.3-.3-2.3-1.8V899zm0 17.3c0-1.6.7-2.4 2.3-2.8l4.8-1c1.5-.3 2.3.3 2.3 1.8v37.8c0 1.6-.7 2.4-2.3 2.8l-4.8 1c-1.5.3-2.3-.3-2.3-1.8v-37.8zm43.9 7.9c7.5 1.1 10.3 3.4 10.3 9.3 0 8.2-6.7 14.1-17.5 16.4-5.6 1.2-11.2 1-16.1-.6-1.3-.5-1.6-1.4-1-2.9l1.3-3c.7-1.5 1.7-2.1 3.1-1.6 4.3 1.4 8.4 1.7 12.5.9 5.2-1.1 8.4-3.6 8.4-7.2 0-2.2-1.5-3.6-4.6-4l-10.3-1.4c-8-1-10.4-3.5-10.4-8.8 0-7.8 6.2-13.4 16.6-15.5 5-1 10-.9 14.5.4 1.3.4 1.6 1.4 1 2.9l-1.1 2.7c-.6 1.5-1.7 2.1-3.1 1.7-3.4-1-7.2-1.2-11-.4-5.2 1.1-7.5 3-7.5 6.3 0 2.2 1.4 3.2 4.6 3.6l10.3 1.2zm19.6-38.2c0-1.6.7-2.4 2.3-2.8l4.8-1c1.5-.3 2.3.3 2.3 1.8v5.3c0 1.6-.7 2.4-2.3 2.8l-4.8 1c-1.5.3-2.3-.3-2.3-1.8V886zm0 17.3c0-1.6.7-2.4 2.3-2.8l4.8-1c1.5-.3 2.3.3 2.3 1.8v37.8c0 1.6-.7 2.4-2.3 2.8l-4.8 1c-1.5.3-2.3-.3-2.3-1.8v-37.8zm48.5 30.1c-1.5.3-2.3-.3-2.3-1.8v-22.5c0-7.3-2.9-10.3-8.8-9.1-5.8 1.2-8.6 5.4-8.6 12.6v22.5c0 1.6-.7 2.4-2.3 2.8l-4.8 1c-1.5.3-2.3-.3-2.3-1.8V913c0-10.4 6.2-18.3 18-20.7 11.8-2.4 18.1 2.9 18.1 13.3v24c0 1.6-.7 2.4-2.3 2.8l-4.7 1zm14.1-29.2c0-9.5 5.9-18.2 18.4-20.8 12-2.5 18.5 3.2 18.5 13.2v26c0 12.5-6.6 20.1-19.7 22.8-4.7 1-9.4.8-13.5-.7-1.3-.5-1.6-1.5-.9-3l1.3-2.7c.7-1.5 1.7-2 3.1-1.5 3.1 1 6.5 1.2 10 .5 6.6-1.3 10.4-5 10.4-13.1v-4.4c-2.7 3.7-6.8 6.7-12 7.8-10.1 2.1-15.6-3.7-15.6-15.4v-8.7zm9.3 4.9c0 9.1 2.2 12.4 9.6 10.9 3.6-.7 7.1-3.3 8.7-6.9v-13c0-7.3-3-10.3-9.1-9s-9.2 5.5-9.2 12.8v5.2z" id="Layer_1"/></g><path class="st3" d="M896 1238.7c-4.1.9-8.3 1.8-12.4 2.4-4.1.7-8.4 1.1-12.8 1.1V1169c3.5-1.5 7.3-2.8 11.4-4.1 4.1-1.3 8-2.3 11.5-3.1 4.8-1.1 9.2-1.8 13.2-2 4-.2 7.5.2 10.4 1.2 2.9 1 5.2 2.7 6.8 5 1.6 2.4 2.5 5.5 2.5 9.5 0 6-2.9 11.5-8.7 16.3 4.8.7 8.1 2.4 9.8 5.2 1.7 2.7 2.6 6 2.6 10 0 7.9-2.9 14.5-8.7 19.9-5.6 5.2-14.2 9.2-25.6 11.8zm-8.6-44.9l8.3-1.9c5.2-1.2 9-2.7 11.2-4.6 2.2-1.9 3.4-4.3 3.4-7.3 0-3.1-1.2-4.9-3.5-5.6-2.3-.7-5.7-.5-10.2.5-1.5.3-3 .7-4.7 1.1-1.7.4-3.2.9-4.5 1.3v16.5zm0 13v19.5c1.2-.1 2.6-.3 4-.6 1.5-.3 3.1-.6 4.8-1 5.1-1.2 9.2-2.8 12.3-5 3.1-2.2 4.7-5.2 4.7-9.1 0-3.5-1.3-5.7-3.9-6.6-2.6-.9-6.4-.8-11.2.3l-10.7 2.5zm56.7-55.6l17-3.9v75.5l-17 3.9v-75.5zm90.4-20.7v14.5l-22.8 5.2v61l-17 3.9v-61l-22.8 5.2v-14.5l62.6-14.3zm4.9 27.5l31.6-7.2v14.7l-31.6 7.2V1158zm93.4 10.9v14.6l-50.4 11.5v-75.5l17-3.9v60.9l33.4-7.6zm10.9-63.4l17-3.9v75.5l-17 3.9v-75.5zm34.5 67.6v-75.5l50.5-11.6v14.3l-33.6 7.7v15.8l29.8-6.8v14.3l-29.8 6.8v31.2l-16.9 3.8zm62.5-14.3v-75.5l51-11.7v14.3l-34 7.8v14.8l30.2-6.9v14l-30.2 6.9v18.2l36.5-8.4v14.3l-53.5 12.2zm-457.5 8.5c-12.6-9.7-33.1-5-45.7 10.5l-28.1 34.6 16 12.4 28.1-34.6c3.8-4.6 9.9-6 13.7-3.1 3.8 2.9 3.8 9 0 13.7l-28.1 34.6 16 12.4 28.1-34.6c3.8-4.6 9.9-6 13.7-3.1 3.8 2.9 3.8 9 0 13.7l-.9 1.1 16 12.4.9-1.1c12.6-15.5 12.6-36 0-45.7-5.7-4.4-12.9-5.8-20.4-4.7-.5-7.6-3.6-14.1-9.3-18.5z"/><path class="st3" d="M702.5 1220.8l-16 19.7 75.4 58.2 43.2-53.2-16-12.3-27.2 33.4zm132.4-16.5c-1 1.3-2.3 2.1-3.7 2.4-1.4.3-2.7.1-3.7-.7-1-.8-1.5-1.9-1.5-3.4 0-1.4.5-2.8 1.5-4.1 1-1.3 2.3-2.1 3.7-2.4 1.4-.3 2.7-.1 3.7.7 1 .8 1.5 1.9 1.5 3.4s-.5 2.8-1.5 4.1zm-6.9 1.1c.9.7 1.9.9 3.2.6 1.2-.3 2.3-1 3.2-2 .9-1.1 1.3-2.2 1.3-3.5 0-1.2-.4-2.2-1.3-2.9-.9-.7-1.9-.9-3.2-.6-1.2.3-2.3 1-3.2 2s-1.3 2.2-1.3 3.5c0 1.2.4 2.2 1.3 2.9zm2-3.2v2.5l-1 .2v-6c.5-.2 1.1-.4 1.9-.5 1.7-.4 2.6 0 2.6 1.1 0 .4-.1.8-.4 1.1-.2.3-.6.6-1 .8.3.1.6.4.8.9l.8 1.6-1 .2-.7-1.5c-.2-.3-.3-.5-.5-.6-.1-.1-.4 0-.8 0l-.7.2zm0-.7l.7-.2c1.2-.3 1.8-.8 1.8-1.5s-.6-.9-1.7-.7c-.3.1-.5.2-.8.3v2.1z"/></svg>