<svg xmlns="http://www.w3.org/2000/svg" xmlns:xlink="http://www.w3.org/1999/xlink" width="429.15" height="402.85" viewBox="0 0 429.15 402.85"><defs><style>.cls-1{fill:url(#Безымянный_градиент_4)}.cls-2{fill:#fff}.cls-12,.cls-15,.cls-18,.cls-21,.cls-24,.cls-27,.cls-3,.cls-30,.cls-32,.cls-33,.cls-35,.cls-38,.cls-6,.cls-9{fill-rule:evenodd}.cls-3{fill:url(#Безымянный_градиент_4-2)}.cls-4{fill:url(#Безымянный_градиент_4-3)}.cls-5{fill:url(#Безымянный_градиент_4-4)}.cls-6{fill:url(#Безымянный_градиент_4-5)}.cls-7{fill:url(#Безымянный_градиент_4-6)}.cls-8{fill:url(#Безымянный_градиент_4-7)}.cls-9{fill:url(#Безымянный_градиент_4-8)}.cls-10{fill:url(#Безымянный_градиент_4-9)}.cls-11{fill:url(#Безымянный_градиент_4-10)}.cls-12{fill:url(#Безымянный_градиент_4-11)}.cls-13{fill:url(#Безымянный_градиент_4-12)}.cls-14{fill:url(#Безымянный_градиент_4-13)}.cls-15{fill:url(#Безымянный_градиент_4-14)}.cls-16{fill:url(#Безымянный_градиент_4-15)}.cls-17{fill:url(#Безымянный_градиент_4-16)}.cls-18{fill:url(#Безымянный_градиент_4-17)}.cls-19{fill:url(#Безымянный_градиент_4-18)}.cls-20{fill:url(#Безымянный_градиент_4-19)}.cls-21{fill:url(#Безымянный_градиент_4-20)}.cls-22{fill:url(#Безымянный_градиент_4-21)}.cls-23{fill:url(#Безымянный_градиент_4-22)}.cls-24{fill:url(#Безымянный_градиент_4-23)}.cls-25{fill:url(#Безымянный_градиент_4-24)}.cls-26{fill:url(#Безымянный_градиент_4-25)}.cls-27{fill:url(#Безымянный_градиент_4-26)}.cls-28{fill:url(#Безымянный_градиент_4-27)}.cls-29{fill:url(#Безымянный_градиент_4-28)}.cls-30{fill:url(#Безымянный_градиент_4-29)}.cls-31{fill:url(#Безымянный_градиент_4-30)}.cls-32{fill:#ffbd52}.cls-33{fill:#d53b9f}.cls-34{fill:url(#Безымянный_градиент_4-31)}.cls-35{fill:url(#Безымянный_градиент_4-32)}.cls-36{fill:url(#Безымянный_градиент_4-33)}.cls-37{fill:url(#Безымянный_градиент_4-34)}.cls-38{fill:url(#Безымянный_градиент_4-35)}.cls-39{fill:url(#Безымянный_градиент_4-36)}</style><linearGradient id="Безымянный_градиент_4" x1="196.25" y1="320.08" x2="239.6" y2="320.08" gradientTransform="rotate(72.36 217.923 320.054)" gradientUnits="userSpaceOnUse"><stop offset="0" stop-color="#ffbd52"/><stop offset="1" stop-color="#d53b9f"/></linearGradient><linearGradient id="Безымянный_градиент_4-2" x1="203" y1="318.36" x2="232.06" y2="318.36" xlink:href="#Безымянный_градиент_4"/><linearGradient id="Безымянный_градиент_4-3" x1="210.96" y1="319.11" x2="221.95" y2="319.11" xlink:href="#Безымянный_градиент_4"/><linearGradient id="Безымянный_градиент_4-4" x1="378.73" y1="124.12" x2="421.01" y2="124.12" gradientTransform="rotate(16.57 399.897 124.14)" xlink:href="#Безымянный_градиент_4"/><linearGradient id="Безымянный_градиент_4-5" x1="384.98" y1="127.02" x2="413.32" y2="127.02" xlink:href="#Безымянный_градиент_4"/><linearGradient id="Безымянный_градиент_4-6" x1="393.52" y1="127.9" x2="403.73" y2="127.9" xlink:href="#Безымянный_градиент_4"/><linearGradient id="Безымянный_градиент_4-7" x1="63.49" y1="58.78" x2="110.38" y2="58.78" gradientTransform="rotate(72.35 86.937 58.79)" xlink:href="#Безымянный_градиент_4"/><linearGradient id="Безымянный_градиент_4-8" x1="70.79" y1="56.92" x2="102.22" y2="56.92" xlink:href="#Безымянный_градиент_4"/><linearGradient id="Безымянный_градиент_4-9" x1="80.63" y1="57.1" x2="91.72" y2="57.1" xlink:href="#Безымянный_градиент_4"/><linearGradient id="Безымянный_градиент_4-10" x1="38.33" y1="91.37" x2="90.98" y2="91.37" gradientTransform="rotate(4.68 64.642 91.242)" xlink:href="#Безымянный_градиент_4"/><linearGradient id="Безымянный_градиент_4-11" x1="50.66" y1="91.81" x2="85.95" y2="91.81" xlink:href="#Безымянный_градиент_4"/><linearGradient id="Безымянный_градиент_4-12" x1="59.97" y1="92.22" x2="75.95" y2="92.22" xlink:href="#Безымянный_градиент_4"/><linearGradient id="Безымянный_градиент_4-13" x1="239.83" y1="347.97" x2="291.46" y2="347.97" gradientTransform="rotate(72.83 265.645 347.984)" xlink:href="#Безымянный_градиент_4"/><linearGradient id="Безымянный_градиент_4-14" x1="252.05" y1="347.51" x2="286.66" y2="347.51" xlink:href="#Безымянный_градиент_4"/><linearGradient id="Безымянный_градиент_4-15" x1="266.54" y1="347.51" x2="273.93" y2="347.51" xlink:href="#Безымянный_градиент_4"/><linearGradient id="Безымянный_градиент_4-16" x1="205.45" y1="41.08" x2="245.57" y2="41.08" gradientTransform="rotate(20.72 225.514 41.08)" xlink:href="#Безымянный_градиент_4"/><linearGradient id="Безымянный_градиент_4-17" x1="211.68" y1="44.19" x2="238.58" y2="44.19" xlink:href="#Безымянный_градиент_4"/><linearGradient id="Безымянный_градиент_4-18" x1="220.8" y1="44.42" x2="231.33" y2="44.42" xlink:href="#Безымянный_градиент_4"/><linearGradient id="Безымянный_градиент_4-19" x1="234.97" y1="84.71" x2="264.39" y2="84.71" gradientTransform="rotate(36.18 249.663 84.694)" xlink:href="#Безымянный_градиент_4"/><linearGradient id="Безымянный_градиент_4-20" x1="241.67" y1="85.76" x2="261.39" y2="85.76" xlink:href="#Безымянный_градиент_4"/><linearGradient id="Безымянный_градиент_4-21" x1="245.84" y1="84.17" x2="257.91" y2="84.17" xlink:href="#Безымянный_градиент_4"/><linearGradient id="Безымянный_градиент_4-22" x1="17.83" y1="241.07" x2="94.1" y2="241.07" gradientTransform="rotate(4.68 55.927 240.88)" xlink:href="#Безымянный_градиент_4"/><linearGradient id="Безымянный_градиент_4-23" x1="35.23" y1="238.41" x2="86.36" y2="238.41" xlink:href="#Безымянный_градиент_4"/><linearGradient id="Безымянный_градиент_4-24" x1="51.21" y1="240.3" x2="71.44" y2="240.3" xlink:href="#Безымянный_градиент_4"/><linearGradient id="Безымянный_градиент_4-25" x1="346.59" y1="269.96" x2="422.82" y2="269.96" gradientTransform="rotate(4.68 384.35 269.744)" xlink:href="#Безымянный_градиент_4"/><linearGradient id="Безымянный_градиент_4-26" x1="357.36" y1="267.43" x2="408.46" y2="267.43" xlink:href="#Безымянный_градиент_4"/><linearGradient id="Безымянный_градиент_4-27" x1="369.15" y1="268" x2="396.37" y2="268" xlink:href="#Безымянный_градиент_4"/><linearGradient id="Безымянный_градиент_4-28" x1="170.8" y1="208.89" x2="264.04" y2="208.89" gradientTransform="rotate(4.68 217.252 208.672)" xlink:href="#Безымянный_градиент_4"/><linearGradient id="Безымянный_градиент_4-29" x1="192.63" y1="209.67" x2="255.13" y2="209.67" xlink:href="#Безымянный_градиент_4"/><linearGradient id="Безымянный_градиент_4-30" x1="205.32" y1="210.08" x2="243.33" y2="210.08" xlink:href="#Безымянный_градиент_4"/><linearGradient id="Безымянный_градиент_4-31" x1="83.67" y1="168.28" x2="209.77" y2="168.28" gradientTransform="rotate(4.68 146.594 168.172)" xlink:href="#Безымянный_градиент_4"/><linearGradient id="Безымянный_градиент_4-32" x1="100.57" y1="176.31" x2="185.1" y2="176.31" xlink:href="#Безымянный_градиент_4"/><linearGradient id="Безымянный_градиент_4-33" x1="132.66" y1="178.79" x2="152.2" y2="178.79" xlink:href="#Безымянный_градиент_4"/><linearGradient id="Безымянный_градиент_4-34" x1="271.21" y1="193.91" x2="394.76" y2="193.91" gradientTransform="rotate(4.68 332.71 193.781)" xlink:href="#Безымянный_градиент_4"/><linearGradient id="Безымянный_градиент_4-35" x1="287.78" y1="202.81" x2="370.6" y2="202.81" xlink:href="#Безымянный_градиент_4"/><linearGradient id="Безымянный_градиент_4-36" x1="307.19" y1="203.34" x2="350.38" y2="203.34" xlink:href="#Безымянный_градиент_4"/></defs><title>Ресурс 2</title><g id="Слой_2" data-name="Слой 2"><g id="OBJECTS"><circle class="cls-1" cx="217.93" cy="320.08" r="21.67" transform="rotate(-72.36 217.9 320.068)"/><circle class="cls-2" cx="217.53" cy="318.36" r="15.79" transform="rotate(-72.35 217.553 318.367)"/><path class="cls-3" d="M221.93 304.52a14.53 14.53 0 0 1-4.4 28.37v-1.37a13.15 13.15 0 0 0 0-26.31v-1.37a14.52 14.52 0 0 1 4.4.68zm-4.4 28.37a14.53 14.53 0 0 1 0-29.06v1.37a13.15 13.15 0 0 0 0 26.31z"/><path class="cls-4" d="M221.95 312.14l-.27 2.48-4.75-.52-.77 2.27a6.29 6.29 0 0 1 1 0 5 5 0 0 1 3.42 1.73 4.87 4.87 0 0 1 1 3.82 5.54 5.54 0 0 1-1.82 3.68 5.39 5.39 0 0 1-4.35 1.1 6.25 6.25 0 0 1-4.4-2.39l1.19-2.38a4.47 4.47 0 0 0 3.41 2.28 2.74 2.74 0 0 0 3.18-2.55 2.94 2.94 0 0 0-.61-2.2 3.19 3.19 0 0 0-2.3-1.13 4.38 4.38 0 0 0-2.88.67h-.17l2.54-7.58z"/><circle class="cls-5" cx="399.87" cy="124.12" r="21.13" transform="rotate(-16.57 399.933 124.124)"/><circle class="cls-2" cx="399.15" cy="127.02" r="15.4" transform="rotate(-16.57 399.228 127.037)"/><path class="cls-6" d="M399.15 112.85a14.17 14.17 0 0 1 0 28.34v-1.34a12.83 12.83 0 0 0 0-25.66zm-4 .59a14.17 14.17 0 0 1 4-.59v1.34a12.83 12.83 0 0 0 0 25.66v1.34a14.17 14.17 0 0 1-4-27.75z"/><path class="cls-7" d="M397.08 124.26l-2.6-.15a4.45 4.45 0 0 1 1.65-3 5.21 5.21 0 0 1 6.41.37 3.83 3.83 0 0 1 1 3 3.31 3.31 0 0 1-1.82 3 3.48 3.48 0 0 1 2 3.64 4.38 4.38 0 0 1-1.64 3.39 5.33 5.33 0 0 1-3.71 1.05 5.17 5.17 0 0 1-3.45-1.45 4.75 4.75 0 0 1-1.41-3.42l2.77.16a2.45 2.45 0 0 0 .66 1.57 2.29 2.29 0 0 0 1.59.67 2.1 2.1 0 0 0 1.74-.6 2.49 2.49 0 0 0 .68-1.61 2.41 2.41 0 0 0-.49-1.65 2.22 2.22 0 0 0-1.74-.79h-.36l.12-2.08h.38a1.79 1.79 0 0 0 1.48-.5 2.15 2.15 0 0 0 .57-1.4 2 2 0 0 0-.43-1.44 1.82 1.82 0 0 0-1.33-.61 2 2 0 0 0-1.38.43 1.93 1.93 0 0 0-.69 1.42z"/><circle class="cls-8" cx="86.93" cy="58.78" r="23.44" transform="rotate(-72.35 86.945 58.78)"/><circle class="cls-2" cx="86.5" cy="56.92" r="17.08" transform="rotate(-72.35 86.51 56.92)"/><path class="cls-9" d="M91.27 41.95a15.71 15.71 0 0 1-4.77 30.68v-1.48a14.23 14.23 0 0 0 0-28.45v-1.49a15.7 15.7 0 0 1 4.77.74zM86.5 72.63a15.71 15.71 0 0 1 0-31.43v1.49a14.23 14.23 0 0 0 0 28.45z"/><path class="cls-10" d="M89.09 57a3.92 3.92 0 0 1 1.85 1.73 4.29 4.29 0 0 1 .47 2.55 4.41 4.41 0 0 1-1.84 3.22 6.37 6.37 0 0 1-7.8-.85 4.41 4.41 0 0 1-1.1-3.54 4.29 4.29 0 0 1 1-2.39 3.91 3.91 0 0 1 2.18-1.29 4.38 4.38 0 0 1-1.45-1.58 3.69 3.69 0 0 1-.4-2.18 4.37 4.37 0 0 1 1.62-3 5.58 5.58 0 0 1 7.13.78 4.37 4.37 0 0 1 .93 3.3 3.69 3.69 0 0 1-.86 2.08A4.39 4.39 0 0 1 89.09 57zm-4.91 5.08a2.39 2.39 0 0 0 3.38.37 2.73 2.73 0 0 0 .39-3.57 2.38 2.38 0 0 0-3.38-.37 2.73 2.73 0 0 0-.39 3.57zm1-7.46a2.25 2.25 0 0 0 3.1.34 2.46 2.46 0 0 0 .35-3.21 2.25 2.25 0 0 0-3.1-.34 2.46 2.46 0 0 0-.35 3.21z"/><circle class="cls-11" cx="64.66" cy="91.37" r="26.33" transform="rotate(-4.68 64.539 91.25)"/><circle class="cls-2" cx="68.3" cy="91.81" r="19.18" transform="rotate(-4.67 68.349 91.958)"/><path class="cls-12" d="M68.3 74.16a17.65 17.65 0 0 1 1.44 35.24q-.72.06-1.44.06v-1.67q.65 0 1.3-.05a16 16 0 0 0-1.3-31.9zm-1.44.06q.72-.06 1.44-.06v1.67q-.65 0-1.3.05a16 16 0 0 0 1.3 31.9v1.67a17.65 17.65 0 0 1-1.44-35.24z"/><path class="cls-13" d="M63.48 102.39L66.82 95q1.61-3.7 1.87-4.56a5.57 5.57 0 0 0 .18-3.15 2.78 2.78 0 0 0-1.3-1.74 2.55 2.55 0 0 0-2-.22 2.51 2.51 0 0 0-1.71 1.43 3.54 3.54 0 0 0-.17 2.32l-3.45 1a6.36 6.36 0 0 1 .53-4.84 6.8 6.8 0 0 1 8.71-2.45 5.78 5.78 0 0 1 2.75 3.51 6.56 6.56 0 0 1 .15 2.7 9.65 9.65 0 0 1-.53 2.25q-.33.8-1 2.15l-2 4.19 6.21-1.79.86 3z"/><circle class="cls-14" cx="265.65" cy="347.97" r="25.81" transform="rotate(-72.83 265.66 347.974)"/><circle class="cls-2" cx="269.35" cy="347.51" r="18.81" transform="rotate(-72.83 269.361 347.511)"/><path class="cls-15" d="M274.46 331a17.3 17.3 0 0 1-5.11 33.83v-1.64a15.67 15.67 0 0 0 0-31.34v-1.65a17.29 17.29 0 0 1 5.11.8zm-5.11 33.83a17.3 17.3 0 0 1 0-34.61v1.64a15.67 15.67 0 0 0 0 31.34z"/><path class="cls-16" d="M266.54 356.07l3.46-14.42-2.41-.57.69-2.91 5.66 1.35-4.13 17.32z"/><circle class="cls-17" cx="225.51" cy="41.08" r="20.06" transform="rotate(-20.72 225.529 41.088)"/><circle class="cls-2" cx="225.13" cy="44.19" r="14.62" transform="rotate(-20.72 225.133 44.181)"/><path class="cls-18" d="M225.13 30.75a13.45 13.45 0 0 1 0 26.9v-1.28a12.18 12.18 0 0 0 0-24.35zm-4.76.87a13.42 13.42 0 0 1 4.76-.87V32a12.18 12.18 0 0 0 0 24.35v1.27a13.45 13.45 0 0 1-4.76-26z"/><path class="cls-19" d="M227.85 37.3l1.59 9.3 1.53-.26.36 2.12-1.53.26.41 2.4-2.4.41-.41-2.4-6.4 1.09-.2-1.22 4.76-11.35zm-4.19 10.29L227 47l-.92-5.39z"/><circle class="cls-20" cx="249.68" cy="84.71" r="14.71" transform="rotate(-35.9 250.498 83.821)"/><circle class="cls-2" cx="251.53" cy="85.76" r="10.72" transform="rotate(-36.18 251.509 85.765)"/><path class="cls-21" d="M259.49 79.94a9.86 9.86 0 0 1-8 15.68v-.93a8.93 8.93 0 1 0 0-17.85v-.94a9.84 9.84 0 0 1 8 4.04zm-8 15.68a9.86 9.86 0 0 1 0-19.72v.93a8.93 8.93 0 0 0 0 17.85z"/><path class="cls-22" d="M245.84 86.39l8.85-1.64-2.92-3.49 1.31-1.09 4.83 5.83L246 88.17z"/><circle class="cls-23" cx="55.97" cy="241.07" r="38.13" transform="rotate(-4.68 55.85 240.913)"/><circle class="cls-2" cx="60.8" cy="238.41" r="27.79" transform="rotate(-4.68 60.741 238.171)"/><path class="cls-24" d="M60.8 212.84a25.56 25.56 0 0 1 2.08 51c-.7.06-1.39.08-2.08.09v-2.42c.62 0 1.25 0 1.89-.08a23.15 23.15 0 0 0-1.89-46.21zm-2.08.09c.7-.06 1.39-.08 2.08-.09v2.42c-.62 0-1.25 0-1.89.08a23.15 23.15 0 0 0 1.89 46.21V264a25.56 25.56 0 0 1-2.08-51z"/><path class="cls-25" d="M51.21 227.86l6.37-.94q4.21-.62 6.54.71a6.5 6.5 0 0 1 3.19 5 5.53 5.53 0 0 1-2.14 5.54 6.21 6.21 0 0 1 3.6 1.14 6.55 6.55 0 0 1 2.58 4.6 6.84 6.84 0 0 1-1.42 5.59 9.54 9.54 0 0 1-6.21 3.07l-8.65 1.28zm5.63 3.39l1 6.67 1.43-.21.71-.13a4.55 4.55 0 0 0 .93-.36 3.55 3.55 0 0 0 1-.69 2.88 2.88 0 0 0 .64-1.13 3.57 3.57 0 0 0 .11-1.67 2.92 2.92 0 0 0-1.45-2.32 4.6 4.6 0 0 0-2.9-.39zm1.57 10.58l1.06 7.17 2.16-.32a7 7 0 0 0 3.37-1.2 3.27 3.27 0 0 0 1.14-3.24 3 3 0 0 0-2.33-2.69 8.71 8.71 0 0 0-3.51 0z"/><circle class="cls-26" cx="384.71" cy="269.96" r="38.12" transform="rotate(-4.68 384.365 269.78)"/><circle class="cls-2" cx="382.91" cy="267.43" r="27.78" transform="rotate(-4.68 382.507 267.253)"/><path class="cls-27" d="M382.91 241.88a25.55 25.55 0 0 1 2.08 51c-.7.06-1.39.08-2.08.09v-2.42c.62 0 1.25 0 1.89-.08a23.13 23.13 0 0 0-1.89-46.19zm-2.08.09c.7-.06 1.39-.08 2.08-.09v2.42q-.94 0-1.89.08a23.13 23.13 0 0 0 1.89 46.19V293a25.55 25.55 0 0 1-2.08-51z"/><path class="cls-28" d="M370.69 261.25a14.19 14.19 0 0 1 18.67-5.39 14.73 14.73 0 0 1 5.46 18.91 14.25 14.25 0 0 1-18.67 5.39 14.73 14.73 0 0 1-5.46-18.91zm8 14.69a8.52 8.52 0 0 0 11.64-3.37 10.15 10.15 0 0 0-3.63-12.49 8.43 8.43 0 0 0-11.61 3.35 10.15 10.15 0 0 0 3.59 12.5z"/><circle class="cls-29" cx="217.42" cy="208.89" r="46.62" transform="rotate(-4.68 217.235 208.655)"/><circle class="cls-2" cx="223.88" cy="209.67" r="33.97" transform="rotate(-4.68 223.695 209.532)"/><path class="cls-30" d="M223.88 178.43a31.25 31.25 0 0 1 2.55 62.39c-.86.07-1.7.1-2.55.1v-3q1.15 0 2.31-.09a28.29 28.29 0 0 0-2.31-56.49zm-2.55.1c.85-.07 1.7-.1 2.55-.1v3q-1.14 0-2.31.09a28.29 28.29 0 0 0 2.31 56.48v3a31.25 31.25 0 0 1-2.55-62.39z"/><path class="cls-31" d="M220.53 228.25L214.6 230l-9.28-32.23 4.1-1.18 24.83 16.6-6.11-21.22 5.93-1.71 9.25 32.14-4.11 1.18-24.83-16.6z"/><path class="cls-32" d="M290.7 91.99l-.08 13.18 11.39 6.65-12.57 4-2.8 12.88-7.68-10.71-13.12 1.31 7.81-10.62-5.3-12.07 12.51 4.15 9.84-8.77z"/><path class="cls-32" d="M288.98 96.66l-.06 9.83 8.48 4.95-9.36 2.98-2.09 9.61-5.73-7.99-9.78.98 5.83-7.91-3.96-9 9.33 3.09 7.34-6.54zm91.15-30.48l-1.66 7.47 5.64 5.18-7.62.72-3.18 6.97-3.05-7.03-7.6-.87 5.74-5.07-1.52-7.5 6.59 3.89 6.66-3.76z"/><path class="cls-32" d="M378.58 68.62l-1.24 5.57 4.2 3.86-5.68.53-2.37 5.2-2.27-5.24-5.67-.65 4.28-3.77-1.13-5.6 4.91 2.91 4.97-2.81zM371.44 0l.77 5.8 5.42 2.22-5.28 2.53-.43 5.84-4.04-4.23-5.69 1.38 2.78-5.15-3.08-4.98 5.76 1.05L371.44 0z"/><path class="cls-32" d="M370.96 2.16l.59 4.33 4.03 1.65-3.93 1.89-.33 4.35-3.01-3.16-4.24 1.04 2.07-3.84-2.29-3.71 4.29.78 2.82-3.33zM157.47 30.92l4.92 5 6.79-1.77-3.24 6.23 3.78 5.91-6.92-1.16-4.45 5.43-1.04-6.94-6.53-2.56 6.27-3.14.42-7z"/><path class="cls-32" d="M158.57 33.33l3.67 3.73 5.06-1.32-2.41 4.64 2.82 4.4-5.16-.86-3.32 4.05-.78-5.18-4.86-1.91 4.67-2.33.31-5.22zM52.67 163.3l6.68 6.79 9.22-2.4-4.4 8.46 5.14 8.02-9.4-1.57-6.05 7.37-1.41-9.43-8.87-3.47 8.52-4.26.57-9.51z"/><path class="cls-32" d="M54.17 166.57l4.98 5.07 6.87-1.79-3.28 6.3 3.83 5.98-7.01-1.17-4.5 5.49-1.06-7.02-6.61-2.59 6.35-3.18.43-7.09zm112.64 109.41l-6.09 10.6 6.15 10.57-11.97-2.51-8.15 9.11-1.3-12.16-11.19-4.93 11.16-5 1.24-12.16 8.2 9.06 11.95-2.58z"/><path class="cls-32" d="M163.28 278.97l-4.54 7.9 4.58 7.87-8.91-1.87-6.08 6.79-.97-9.06-8.34-3.68 8.32-3.72.92-9.07 6.11 6.76 8.91-1.92zm-92.27 47.98l3.92 6.74 7.79-.02-5.2 5.81 2.43 7.4-7.13-3.15-6.29 4.6.8-7.76-6.33-4.56 7.63-1.64 2.38-7.42z"/><path class="cls-32" d="M71.53 329.85l2.92 5.03 5.81-.02-3.88 4.33 1.82 5.52-5.32-2.36-4.69 3.44.6-5.79-4.72-3.4 5.69-1.22 1.77-5.53zm-3.03 53.03l3.27 5.63 6.52-.02-4.36 4.85 2.04 6.2-5.96-2.64-5.26 3.85.67-6.49-5.29-3.81 6.37-1.37 2-6.2z"/><path class="cls-32" d="M68.93 385.3l2.44 4.2 4.86-.01-3.24 3.61 1.51 4.62-4.44-1.97-3.92 2.87.5-4.83-3.94-2.85 4.75-1.02 1.48-4.62zm95.88-44.72l5.9 5.1 7.36-2.58-3.02 7.19 4.72 6.21-7.77-.65-4.44 6.4-1.78-7.59-7.47-2.24 6.67-4.04-.17-7.8z"/><path class="cls-32" d="M166.25 343.15l4.4 3.8 5.49-1.92-2.26 5.36 3.52 4.63-5.79-.49-3.31 4.78-1.33-5.66-5.56-1.68 4.97-3.01-.13-5.81zm96.46-73.68l9.58 6.34 10.28-5.14-3.07 11.07 8.06 8.19-11.48.5-5.29 10.2-4.03-10.76-11.34-1.88 9-7.16-1.71-11.36z"/><path class="cls-32" d="M265.29 272.95l7.15 4.73 7.66-3.83-2.29 8.26 6.01 6.1-8.56.37-3.94 7.6-3-8.02-8.45-1.4 6.7-5.33-1.28-8.48zm81.29 68.59l5.8 5.2 7.41-2.43-3.15 7.13 4.61 6.29-7.76-.79-4.56 6.32-1.64-7.62-7.43-2.39 6.74-3.91-.02-7.8z"/><path class="cls-32" d="M347.97 344.14l4.33 3.87 5.52-1.81-2.35 5.31 3.43 4.69-5.78-.59-3.4 4.72-1.22-5.69-5.54-1.77 5.03-2.92-.02-5.81z"/><path class="cls-33" d="M196.57 76.63l4.94 5.59 7.31-1.5-3.79 6.43 3.69 6.49-7.29-1.62-5.03 5.51-.72-7.43-6.79-3.08 6.84-2.98.84-7.41z"/><path class="cls-33" d="M197.6 79.25l3.69 4.17 5.45-1.12-2.83 4.79 2.75 4.84-5.43-1.21-3.75 4.11-.53-5.54-5.07-2.29 5.1-2.22.62-5.53zm128.02-45.68l1.92 8.93 8.69 2.79-7.9 4.59.04 9.13-6.8-6.1-8.68 2.86 3.7-8.36-5.4-7.37 9.09.94 5.34-7.41z"/><path class="cls-33" d="M325.15 36.99l1.43 6.66 6.48 2.08-5.88 3.42.02 6.8-5.07-4.54-6.47 2.12 2.76-6.22-4.02-5.49 6.77.69 3.98-5.52zm-144.46 221.7l.41 5.01 4.55 2.14-4.64 1.94-.63 4.99-3.28-3.81-4.94.94 2.61-4.3-2.42-4.4 4.89 1.15 3.45-3.66z"/><path class="cls-33" d="M180.19 260.52l.31 3.74 3.39 1.59-3.46 1.45-.47 3.72-2.45-2.84-3.68.7 1.95-3.2-1.81-3.29 3.65.86 2.57-2.73zm84.58-107.84l.32 3.82 3.46 1.63-3.53 1.48-.48 3.8-2.5-2.91-3.76.72 1.98-3.27-1.84-3.36 3.73.88 2.62-2.79z"/><path class="cls-33" d="M264.39 154.08l.24 2.84 2.58 1.22-2.64 1.1-.35 2.83-1.86-2.16-2.81.53 1.48-2.44-1.37-2.5 2.78.66 1.95-2.08zM18.73 126.91l7.09 5.75 8.52-3.26-3.28 8.52 5.74 7.1-9.12-.5-4.98 7.66-2.34-8.83-8.82-2.36 7.66-4.96-.47-9.12z"/><path class="cls-33" d="M20.51 129.86l5.28 4.3 6.36-2.44-2.46 6.35 4.29 5.3-6.8-.37-3.71 5.7-1.75-6.57-6.58-1.77 5.72-3.7-.35-6.8zm295.53 252.12l1.17 7.36 6.97 2.66-6.64 3.39-.38 7.46-5.28-5.27-7.2 1.94 3.38-6.65-4.07-6.25 7.37 1.16 4.68-5.8z"/><path class="cls-33" d="M315.51 384.75l.87 5.49 5.2 1.98-4.95 2.53-.28 5.55-3.94-3.93-5.37 1.45 2.52-4.95-3.04-4.66 5.5.86 3.49-4.32zm107.81-183.18l.84 5.27 4.99 1.9-4.76 2.43-.27 5.33-3.77-3.77-5.16 1.39 2.42-4.76-2.91-4.47 5.27.83 3.35-4.15z"/><path class="cls-33" d="M422.94 203.55l.63 3.93 3.71 1.42-3.54 1.81-.2 3.97-2.82-2.81-3.84 1.04 1.81-3.55-2.18-3.33 3.93.62 2.5-3.1zM73.81 293.19l5.59 5.58 7.63-2.06-3.58 7.04 4.31 6.62-7.8-1.23-4.96 6.15-1.24-7.8-7.38-2.82 7.03-3.59.4-7.89z"/><path class="cls-33" d="M75.08 295.89l4.17 4.16 5.68-1.53-2.67 5.25 3.22 4.93-5.82-.92-3.7 4.58-.92-5.81-5.5-2.1 5.24-2.68.3-5.88zM8.53 220.93l.41 5.01 4.55 2.14-4.64 1.95-.63 4.99-3.28-3.81-4.94.94 2.61-4.3-2.42-4.41 4.89 1.15 3.45-3.66z"/><path class="cls-33" d="M8.03 222.76l.31 3.74 3.39 1.6-3.46 1.44-.47 3.72-2.44-2.84-3.69.7 1.95-3.2-1.81-3.29 3.65.87 2.57-2.74zm307.23 83.76l2.56 7.47 7.75 1.5-6.31 4.75.97 7.84-6.47-4.53-7.16 3.34 2.32-7.56-5.39-5.77 7.9-.13 3.83-6.91z"/><path class="cls-33" d="M315.2 309.5l1.92 5.57 5.78 1.12-4.71 3.54.72 5.85-4.82-3.39-5.33 2.5 1.72-5.63-4.02-4.31 5.89-.1 2.85-5.15z"/><path class="cls-32" d="M143.43 77.89l.56 4.15 3.87 1.58-3.77 1.82-.32 4.17-2.89-3.03-4.06.99 1.99-3.68-2.21-3.56 4.12.75 2.71-3.19z"/><path class="cls-32" d="M143.09 79.43l.42 3.1 2.89 1.18-2.82 1.35-.23 3.11-2.16-2.26-3.03.74 1.49-2.74-1.65-2.66 3.07.56 2.02-2.38zm18.15 164.99l.55 4.15 3.88 1.58-3.78 1.82-.31 4.17-2.89-3.03-4.07.99 1.99-3.68-2.2-3.56 4.12.75 2.71-3.19z"/><path class="cls-32" d="M160.9 245.96l.42 3.1 2.88 1.18-2.81 1.35-.23 3.11-2.16-2.26-3.03.74 1.48-2.74-1.64-2.66 3.07.56 2.02-2.38zm179.9-144.57l-1.19 4.02 2.89 3.03-4.19.11-1.99 3.68-1.4-3.95-4.11-.75 3.32-2.55-.55-4.15 3.45 2.37 3.77-1.81z"/><path class="cls-32" d="M339.86 102.67l-.88 2.99 2.15 2.26-3.12.08-1.49 2.75-1.04-2.95-3.07-.56 2.48-1.9-.41-3.09 2.57 1.76 2.81-1.34zm-56.75 145.16l-2.4 3.43 1.78 3.79-4-1.22-3.06 2.86-.08-4.19-3.66-2.02 3.96-1.37.79-4.11 2.52 3.34 4.15-.51z"/><path class="cls-32" d="M281.82 248.74l-1.79 2.55 1.32 2.83-2.98-.91-2.28 2.13-.06-3.12-2.73-1.51 2.95-1.02.59-3.06 1.88 2.49 3.1-.38zm-39.08-120.68l-1.42 4.78 3.44 3.62-4.99.13-2.38 4.39-1.66-4.7-4.91-.91 3.96-3.04-.66-4.95 4.12 2.83 4.5-2.15z"/><path class="cls-32" d="M241.62 129.57l-1.06 3.57 2.57 2.7-3.72.1-1.78 3.27-1.24-3.51-3.66-.67 2.96-2.27-.5-3.69 3.07 2.11 3.36-1.61zM29.88 17.41l-1.42 4.78 3.44 3.62-4.99.13-2.38 4.39-1.66-4.7-4.91-.91 3.96-3.04-.66-4.95 4.12 2.83 4.5-2.15z"/><path class="cls-32" d="M28.76 18.93l-1.06 3.56 2.57 2.7-3.72.1-1.78 3.27-1.24-3.51-3.66-.67 2.95-2.27-.48-3.69 3.06 2.11 3.36-1.6zm389.22 369.38l-4.94.75-1.82 4.65-2.23-4.47-4.99-.29 3.56-3.5-1.27-4.83 4.44 2.29 4.2-2.69-.82 4.92 3.87 3.17z"/><path class="cls-32" d="M416.13 387.94l-3.69.56-1.35 3.46-1.66-3.33-3.72-.21 2.65-2.61-.94-3.61 3.3 1.72 3.13-2.01-.6 3.67 2.88 2.36z"/><circle class="cls-34" cx="146.72" cy="168.28" r="63.05" transform="rotate(-4.68 146.578 168.14)"/><circle class="cls-2" cx="142.84" cy="176.31" r="45.94" transform="rotate(-4.68 142.695 176.194)"/><path class="cls-35" d="M142.84 134a42.26 42.26 0 0 1 3.44 84.38q-1.73.14-3.44.14v-4q1.55 0 3.12-.13a38.27 38.27 0 0 0-3.12-76.39zm-3.44.14q1.73-.14 3.44-.14v4q-1.55 0-3.12.13a38.27 38.27 0 0 0 3.12 76.41v4a42.26 42.26 0 0 1-3.44-84.38z"/><path class="cls-36" d="M144.2 156.45l8 2.17-11.54 42.51-8-2.17z"/><circle class="cls-37" cx="332.98" cy="193.9" r="61.77" transform="rotate(-4.68 332.685 193.762)"/><circle class="cls-2" cx="329.19" cy="202.81" r="45.01" transform="rotate(-4.68 328.89 202.677)"/><path class="cls-38" d="M329.19 161.4a41.41 41.41 0 0 1 3.37 82.68q-1.7.14-3.37.14v-3.92q1.52 0 3.06-.12a37.49 37.49 0 0 0-3.06-74.86zm-3.37.14c1.13-.09 2.26-.14 3.37-.14v3.91q-1.52 0-3.06.13a37.49 37.49 0 0 0 3.06 74.86v3.91a41.41 41.41 0 0 1-3.37-82.68z"/><path class="cls-39" d="M330.17 209.28l.82-7.35 19.38 2.16-.12 1.12q-1 9-5.51 14.34-6.65 7.9-17.74 6.66-9.82-1.1-15.29-8.12t-4.34-17.19q1.14-10.17 8.15-15.84t16.83-4.57a23.32 23.32 0 0 1 7.47 2 15.87 15.87 0 0 1 5.22 3.77 30.41 30.41 0 0 1 2.8 3.6 17.69 17.69 0 0 1 1.47 2.92l-7.6 3.21a20 20 0 0 0-1-1.87 16.39 16.39 0 0 0-1.76-2.32 10.2 10.2 0 0 0-3.17-2.35 13 13 0 0 0-4.38-1.25 12.73 12.73 0 0 0-10.5 3.31 16 16 0 0 0-5.04 10.49 16.79 16.79 0 0 0 2.32 10.79q3 5 9.82 5.71a13.94 13.94 0 0 0 8.33-1.4 9.67 9.67 0 0 0 4.74-6.58z"/></g></g></svg>