<svg xmlns="http://www.w3.org/2000/svg" width="1584.5" height="244.5" viewBox="0 0 1584.5 244.5"><defs><style>.cls-1{fill:url(#Безымянный_градиент_6)}</style><linearGradient id="Безымянный_градиент_6" x1="354.11" y1="45.12" x2="62.97" y2="234.36" gradientUnits="userSpaceOnUse"><stop offset="0" stop-color="#ffbd52"/><stop offset="1" stop-color="#d53b9f"/></linearGradient></defs><title>Ресурс 1</title><g id="Слой_2" data-name="Слой 2"><g id="Layer_1" data-name="Layer 1"><path class="cls-1" d="M201.32 62.71c-26.21 0-52.42-.24-78.62.06-29.14.33-53.07 18.85-59.24 45.23-9 38.3 18.19 73.09 58.21 74 22.14.5 44.3.19 66.45 0 5.6 0 10.15 1.25 14.25 5.43 16.17 16.48 32.62 32.68 48.91 49 1.67 1.68 4.76 3.15 3.8 5.88-1 2.93-4.34 1.77-6.66 1.77-42.74 0-85.5.76-128.22-.23-59-1.37-105.55-40.71-117.79-97.91C-12 78.54 40.35 7.39 109.13 2.47 168-1.73 227 .58 285.91 1.15c34.56.34 60.34 17.32 72.65 50.55 15.37 41.47-7.52 85.49-50.77 98.45-8.87 2.66-7.17 5-2.19 9.89q37.56 37.22 74.82 74.76c2.08 2.09 6 4 4.72 7.34s-5.48 2.08-8.42 2.09c-21.53.1-43.06-.16-64.58.15a22.05 22.05 0 0 1-17.36-7.12c-25.61-26-51.61-51.64-77.25-77.62-4.74-4.81-9.71-7-16.49-6.91-25.89.26-51.79.18-77.68 0-19.36-.12-32.36-12.27-32.51-29.9-.16-17.89 13.21-30.6 32.76-30.66 50.54-.14 101.08-.1 151.63-.18a69.08 69.08 0 0 0 12.11-.68c9.44-1.71 13.71-6.79 13.33-15.1-.36-7.88-5.79-12.73-15.12-13.35-2.8-.19-5.61-.1-8.42-.1h-75.82z"/><path d="M495.07 141.09c0 24.2 12.69 38.92 35.54 38.92 9 0 17.43-2.71 25.72-8.12 1.18-.85 2.2-.68 2.88.68l1.35 2.71a2.16 2.16 0 0 1-.68 2.88 52.76 52.76 0 0 1-29.11 8.46c-27.58 0-43-17.26-43-43.66v-35.2c0-13 3.72-23.69 11.17-31.64s18.11-12 31.81-12a51 51 0 0 1 29.11 9 1.92 1.92 0 0 1 .68 2.71l-1.35 2.71a1.78 1.78 0 0 1-2.88.68c-8.29-5.58-16.92-8.46-25.72-8.46-22.84 0-35.54 15.06-35.54 38.92zm84.44 43.49a1.79 1.79 0 0 1-2-2v-53.84c0-20.48 12.18-33.84 36.72-33.84A42.67 42.67 0 0 1 634 99.63c1.18.51 1.35 1.52.85 2.71l-1 2a1.87 1.87 0 0 1-2.71 1 40.23 40.23 0 0 0-17.14-4.19c-19.8 0-29.61 10.83-29.61 29.11v52.29a1.8 1.8 0 0 1-2 2zm73.61-87.66a1.8 1.8 0 0 1 2 2v47.21c0 22.51 8 34.18 26.91 34.18 10 0 19.63-5.92 26.91-17.26V99a1.79 1.79 0 0 1 2-2h2.88a1.8 1.8 0 0 1 2 2v86.13c0 24.88-11.85 37.57-37.4 37.57a50.29 50.29 0 0 1-24.71-6.43 1.85 1.85 0 0 1-.85-2.71l1.18-2.2c.51-1.18 1.52-1.35 2.71-.85a43.81 43.81 0 0 0 21.49 5.92c18.11 0 30.63-6.43 30.63-31.31V170.7c-8.29 10.66-18.11 15.91-29.61 15.91-20.31 0-31.14-14.38-31.14-38.07V99a1.79 1.79 0 0 1 2-2zm151.62 51.61c0 23.18-11.51 38.07-32 38.07-11.84 0-22-5.25-30.63-15.91v47.72a1.8 1.8 0 0 1-2 2h-2.88a1.79 1.79 0 0 1-2-2v-89.17c0-20.31 12.18-34.35 34.69-34.35 11.17 0 19.8 3.22 25.72 9.65 6.09 6.43 9.14 14.72 9.14 24.71zm-6.94-16.92c0-19.12-10.32-30.46-27.92-30.46-18.28 0-27.75 11.51-27.75 30.46v31.48c7.45 11 17.6 17.26 27.92 17.26 19.12 0 27.75-11.85 27.75-34.18zM817.26 99a1.79 1.79 0 0 1 2-2h16.41V70.69a1.79 1.79 0 0 1 2-2h2.88a1.79 1.79 0 0 1 2 2v26.23h30.8a1.79 1.79 0 0 1 2 2v2.2a1.79 1.79 0 0 1-2 2h-30.8v58.28c0 12.35 7.61 19 20.31 19a32.36 32.36 0 0 0 12.69-2.71c1.35-.51 2.37-.17 2.88 1l1 2.2c.68 1.35.34 2.2-1 2.71a43.13 43.13 0 0 1-15.57 3c-16.92 0-27.25-9-27.25-24.71v-58.71h-16.32a1.79 1.79 0 0 1-2-2zm74.12 53.77v-24c0-20.14 12.18-33.84 34.69-33.84 22.84 0 34.86 13.71 34.86 33.84v24c0 20.14-12 33.84-34.86 33.84-22.51 0-34.69-13.71-34.69-33.84zm6.94-2c0 18.78 9.48 29.27 27.75 29.27S954 169.69 954 150.74v-20c0-19-9.65-29.27-27.92-29.27s-27.76 10.53-27.76 29.3zm83.93-18.65a1.79 1.79 0 0 1-2-2v-3a1.79 1.79 0 0 1 2-2h39.94a1.79 1.79 0 0 1 2 2v3a1.79 1.79 0 0 1-2 2zm148.91-27.75c0 15.4-8.46 25.72-22.17 30l26.57 44.63c1.86 3.22.68 5.58-3.21 5.58h-12.18a5.84 5.84 0 0 1-5.58-3.22l-25.9-44.36h-21.32v42.81c0 3.22-1.52 4.74-4.74 4.74h-10.83c-3.21 0-4.74-1.52-4.74-4.74v-109c0-3.22 1.52-4.74 4.74-4.74h39.43c24.37 0 39.94 11.85 39.94 32.83zm-20.31-5.25c0-11-6.94-16.25-21-16.25h-22.51v37.4h22.51c14 0 21-4.74 21-16.08zm95.15 31.31c0-14.21-7.45-20.31-21.15-20.31q-10.15 0-21.83 6.09c-2.88 1.52-5.08 1-6.6-1.69l-2.54-4.74c-1.52-2.88-1-4.91 1.69-6.43a61.81 61.81 0 0 1 31.43-8.46c25.55 0 38.41 13 38.41 35.2v21.66c0 22.17-13.54 34.86-38.58 34.86-12.18 0-21.66-2.54-28.43-7.78-6.6-5.25-10-11.51-10-18.78v-3c0-15.74 12.52-25.89 34.69-25.89H1206zm-38.07 28.94c0 7.28 6.77 12.18 19.12 12.18 12 0 19-7.28 19-19.63v-7.28h-21.15c-11 0-16.92 4.57-16.92 12.18zm76.78-93.58c0-3.22 1.52-4.74 4.74-4.74h10c3.21 0 4.74 1.52 4.74 4.74v11c0 3.21-1.52 4.74-4.74 4.74h-10c-3.21 0-4.74-1.52-4.74-4.74zm0 35.87c0-3.21 1.52-4.74 4.74-4.74h10c3.21 0 4.74 1.52 4.74 4.74v78.18c0 3.22-1.52 4.74-4.74 4.74h-10c-3.21 0-4.74-1.52-4.74-4.74zm91.55 35.03c15.57 5.42 21.49 11.51 21.49 23.52 0 16.92-14 26.4-36.55 26.4a72.15 72.15 0 0 1-33.67-8c-2.71-1.52-3.38-3.55-2-6.43l2.71-5.75c1.52-2.88 3.55-3.55 6.43-2 9 4.74 17.6 7.11 26.06 7.11 10.83 0 17.6-3.89 17.6-11.34 0-4.57-3.22-8.12-9.65-10.32l-21.49-7.28c-16.75-5.42-21.66-11.68-21.66-22.68 0-16.08 12.86-25 34.52-25a68 68 0 0 1 30.25 7.08c2.71 1.35 3.38 3.55 2 6.43l-2.37 5.08c-1.35 2.88-3.55 3.55-6.43 2.2a52.31 52.31 0 0 0-23-5.58c-10.83 0-15.57 3-15.57 9.81 0 4.57 2.88 7.28 9.65 9.48zm40.74-70.9c0-3.22 1.52-4.74 4.74-4.74h10c3.21 0 4.74 1.52 4.74 4.74v11c0 3.21-1.52 4.74-4.74 4.74h-10c-3.21 0-4.74-1.52-4.74-4.74zm0 35.87c0-3.21 1.52-4.74 4.74-4.74h10c3.21 0 4.74 1.52 4.74 4.74v78.18c0 3.22-1.52 4.74-4.74 4.74h-10c-3.21 0-4.74-1.52-4.74-4.74zm101.23 82.92c-3.21 0-4.74-1.52-4.74-4.74v-46.53c0-15.06-6.09-22.51-18.44-22.51-12 0-17.94 7.45-17.94 22.51v46.54c0 3.22-1.52 4.74-4.74 4.74h-10c-3.21 0-4.74-1.52-4.74-4.74v-49.76c0-21.49 13-35.2 37.57-35.2s37.8 13.71 37.8 35.2v49.75c0 3.22-1.52 4.74-4.74 4.74zm29.27-54.49c0-19.63 12.35-35.2 38.41-35.2 25 0 38.58 14.38 38.58 35.2v53.81c0 25.89-13.71 38.75-41.12 38.75a56.35 56.35 0 0 1-28.09-7.11c-2.71-1.52-3.38-3.72-1.86-6.6l2.71-5.08c1.52-2.71 3.55-3.38 6.43-1.86a45.17 45.17 0 0 0 20.81 5.25c13.71 0 21.66-5.92 21.66-22.68v-9c-5.58 6.6-14.21 11-25 11-21 0-32.49-14.21-32.49-38.41zm19.5 14.21c0 18.78 4.57 26.57 20 26.57 7.45 0 14.72-3.89 18.11-10.66v-26.9c0-15.06-6.26-22.51-19-22.51s-19.11 7.44-19.11 22.51z"/></g></g></svg>